<ttFont>
          <CharString index="0">
            -18 -68 rlineto
            4 callsubr
            hvcurveto
            142 -146 rmoveto
            -70 -44 50 102 148 110 150 120 48 40 -26 -66 38 hvcurveto
            -52 -250 rlineto
            -68 -60 -64 -40 -66 hhcurveto
            return
          </CharString>
          <CharString index="1">
            rmoveto
            18 18 16 22 18 -12 12 -16 -18 -18 -16 -24 -26 callsubr
            16 hvcurveto
            return
          </CharString>
          <CharString index="2">
            -106 callsubr
            endchar
          </CharString>
          <CharString index="3">
            30 vstem
            -106 callgsubr
            return
          </CharString>
          <CharString index="4">
            -8 -62 -58 callgsubr
            58 296 rlineto
            4 16 4 28 18 vvcurveto
            98 -50 34 -82 -54 -60 -24 -26 -44 vhcurveto
            12 -24 rlineto
            28 46 52 20 46 hhcurveto
            74 32 -28 -80 -20 -2 -16 -6 -26 hvcurveto
            return
          </CharString>
          <CharString index="5">
            rmoveto
            -240 hlineto
            72 132 42 78 40 70 40 82 rlinecurve
            4 hlineto
            8 -80 10 -76 8 -74 rrcurveto
            -36 264 rmoveto
            -366 -660 rlineto
            34 hlineto
            130 238 rlineto
            257 hlineto
            29 -238 rlineto
            30 hlineto
            41 callgsubr
            return
          </CharString>
          <CharString index="6">
            -208 -6 -130 -54 -132 vvcurveto
            334 166 rmoveto
            -34 -168 rlineto
            -58 -66 -58 -28 -52 hhcurveto
            -54 -42 28 66 106 120 50 186 4 hvcurveto
            return
          </CharString>
          <CharString index="7">
            rmoveto
            76 38 62 52 18 hvcurveto
            -24 hlineto
            -50 -18 -38 -40 -50 hhcurveto
            -50 -20 36 54 4 hvcurveto
            -22 hlineto
            -52 -4 14 -62 76 hhcurveto
            return
          </CharString>
          <CharString index="8">
            hlineto
            -84 -422 rlineto
            -162 -32 -82 -62 -86 hhcurveto
            -106 -54 64 110 24 2 26 8 32 hvcurveto
            102 callgsubr
            -30 hlineto
            return
          </CharString>
          <CharString index="9">
            -72 -188 rmoveto
            -12 -24 rlineto
            -8 18 16 -2 10 hhcurveto
            86 54 82 74 38 hvcurveto
            300 544 -24 callgsubr
            -170 -312 -26 -48 -26 -48 -24 -46 rlinecurve
            -4 hlineto
            -6 44 -8 52 -8 46 -50 312 rcurveline
            -28 hlineto
            80 -488 -22 -44 rlineto
            -86 -42 -52 -56 -60 hhcurveto
            -12 -10 2 6 -12 hvcurveto
            return
          </CharString>
          <CharString index="10">
            -33 callgsubr
            72 358 rlineto
            74 76 60 32 44 hhcurveto
            64 26 -32 -62 -20 -2 -14 -6 -30 hvcurveto
            -62 -306 rlineto
            28 71 callgsubr
            6 28 2 12 24 vvcurveto
            68 -32 48 -82 -58 -54 -38 return
          </CharString>
          <CharString index="11">
            -30 -99 callsubr
            return
          </CharString>
          <CharString index="12">
            76 vmoveto
            -42 26 62 -46 70 hhcurveto
            92 70 54 86 40 -12 36 -110 60 hvcurveto
            -48 26 -42 26 48 vvcurveto
            54 52 46 64 50 34 -22 -28 26 vhcurveto
            20 20 rlineto
            34 -32 -44 22 -52 hhcurveto
            -78 -68 -52 -80 -48 30 -32 90 -48 hvcurveto
            77 -41 15 -27 -40 vvcurveto
            -58 -60 -50 -70 -64 -50 36 42 -26 vhcurveto
            return
          </CharString>
          <CharString index="13">
            rmoveto
            58 298 rlineto
            118 hlineto
            118 60 -32 -86 -112 -84 -68 -148 hvcurveto
            -88 324 rmoveto
            -132 -660 rlineto
            30 71 callgsubr
            141 hlineto
            127 -310 rlineto
            34 hlineto
            -129 311 rlineto
            126 11 91 78 118 vvcurveto
            100 -72 42 -118 vhcurveto
            endchar
          </CharString>
          <CharString index="14">
            8 callgsubr
            86 436 12 60 12 62 10 64 rlinecurve
            4 hlineto
            50 -138 182 -484 rlineto
            32 2 callsubr
            -430 -12 -62 -10 -64 -10 -62 rlinecurve
            -4 hlineto
            -48 132 -184 486 rlineto
            -34 hlineto
            return
          </CharString>
          <CharString index="15">
            -59 -12 26 612 26 hstemhm
            34 28 72 28 222 28 10 28 hintmask 11111000
            212 344 rmoveto
            86 -46 86 -40 -92 vvcurveto
            -96 -86 -56 -86 -76 -74 48 94 90 62 52 88 46 vhcurveto
            hintmask 11111100
            84 -14 rmoveto
            -82 38 -52 38 82 vvcurveto
            86 68 52 72 62 58 -42 -80 -80 -62 -58 -64 -36 vhcurveto
            -262 -176 rmoveto
            -110 86 -56 92 vhcurveto
            hintmask 11111000
            108 92 70 114 70 -60 50 -32 22 hvcurveto
            4 vlineto
            hintmask 11111100
            74 44 56 54 90 vvcurveto
            96 -68 50 -78 -90 -80 -62 -104 -54 20 -34 38 -36 vhcurveto
            -4 vlineto
            -80 -38 -78 -62 -104 vvcurveto
            endchar
          </CharString>
          <CharString index="16">
            vstem
            140 hmoveto
            30 hlineto
            55 273 273 387 rlineto
            -32 hlineto
            -151 -215 -33 -47 -32 -48 -33 -47 rlinecurve
            -3 hlineto
            -14 49 -12 45 -13 48 -59 215 rcurveline
            -30 hlineto
            109 -387 rlineto
            return
          </CharString>
          <CharString index="17">
            112 hmoveto
            42 hlineto
            144 312 22 46 22 52 20 44 rlinecurve
            4 hlineto
            4 -44 0 -52 4 -46 22 -312 rcurveline
            42 hlineto
            228 92 callsubr
            -154 -324 -22 -44 -18 -42 -20 -42 rlinecurve
            -4 hlineto
            -2 42 -4 42 -2 44 -24 324 rcurveline
            -40 hlineto
            -150 -324 -20 -44 -18 -42 -20 -42 rlinecurve
            -4 hlineto
            -4 42 -4 42 -4 44 -28 324 rcurveline
            -28 hlineto
            return
          </CharString>
          <CharString index="18">
            110 hmoveto
            38 hlineto
            220 472 24 54 24 48 20 54 rlinecurve
            4 hlineto
            -54 2 -48 -54 vvcurveto
            16 -472 rlineto
            38 hlineto
            284 660 rlineto
            -32 hlineto
            -168 -400 -32 -72 -30 -72 -30 -72 rlinecurve
            -4 hlineto
            -2 72 -2 72 -4 72 -14 400 rcurveline
            -34 hlineto
            -188 -400 -32 -72 -34 -72 -34 -72 rlinecurve
            -4 hlineto
            2 72 -2 72 2 72 rrcurveto
            400 -30 vlineto
            return
          </CharString>
          <CharString index="19">
            46 160 rmoveto
            -73 callgsubr
            vhcurveto
            4 hlineto
            return
          </CharString>
          <CharString index="20">
            29 callsubr
            100 47 callsubr
            -100 -58 callgsubr
            -68 134 rlineto
            -18 hlineto
            return
          </CharString>
          <CharString index="21">
            hlineto
            6 26 rlineto
            return
          </CharString>
          <CharString index="22">
            -42 28 -20 38 16 20 6 10 18 vhcurveto
            100 callsubr
            -14 -12 -4 -16 hhcurveto
            -22 -16 16 26 return
          </CharString>
          <CharString index="23">
            rmoveto
            -28 hlineto
            -96 -100 rlineto
            -4 hlineto
            -56 100 -19 callgsubr
            68 -134 rlineto
            18 hlineto
            endchar
          </CharString>
          <CharString index="24">
            vstem
            58 246 rmoveto
            -146 72 -112 148 72 54 26 46 56 vhcurveto
            -18 20 rlineto
            -42 -50 -48 -24 -64 hhcurveto
            -134 -58 104 134 170 108 224 192 62 42 -36 -46 26 hvcurveto
            24 16 rlineto
            48 -30 -48 44 -74 hhcurveto
            -210 -122 -234 -192 hvcurveto
            return
          </CharString>
          <CharString index="25">
            rmoveto
            212 hlineto
            4 26 rlineto
            -212 hlineto
            return
          </CharString>
          <CharString index="26">
            hstem
            40 474 vstem
            -99 callgsubr
            return
          </CharString>
          <CharString index="27">
            59 callgsubr
            78 -24 callsubr
            48 42 callsubr
            -60 112 rlineto
            -18 hlineto
            return
          </CharString>
          <CharString index="28">
            -87 callsubr
            endchar
          </CharString>
          <CharString index="29">
            242 hlineto
            4 24 rlineto
            -200 hlineto
            162 118 74 70 92 vvcurveto
            60 -40 38 -64 -46 -40 -30 -32 -30 vhcurveto
            18 -18 rlineto
            32 28 34 24 34 hhcurveto
            53 25 -28 -48 -84 -67 -60 -183 -134 hvcurveto
            return
          </CharString>
          <CharString index="30">
            rmoveto
            -42 callsubr
            hintmask 11101000
            60 16 40 46 48 vvcurveto
            60 -42 34 -60 -40 -38 -14 -28 -34 vhcurveto
            14 -21 rlineto
            25 30 35 14 31 hhcurveto
            48 28 -28 -42 -44 -40 -50 -102 hvcurveto
            -6 -24 rlineto
            hintmask 11110000
            -11 callgsubr
          </CharString>
          <CharString index="31">
            rmoveto
            50 30 -34 -52 -68 -46 -48 -50 -48 -46 40 92 hvcurveto
            1 0 2 1 vvcurveto
            46 32 43 20 35 hhcurveto
            140 158 rmoveto
            20 -22 -30 10 -34 hhcurveto
            -100 -92 -94 -172 -96 58 -52 62 62 64 52 94 58 -40 46 -66 -45 -42 -27 -30 -23 hvcurveto
            127 12 75 70 73 hhcurveto
            28 24 -8 -18 18 hvcurveto
            endchar
          </CharString>
          <CharString index="32">
            rmoveto
            48 -6 16 -12 -26 vvcurveto
            -28 -20 -20 -50 -14 73 callgsubr
            54 16 34 26 46 vvcurveto
            32 -30 24 -56 4 vhcurveto
            -202 -204 -80 callsubr
            endchar
          </CharString>
          <CharString index="33">
            rmoveto
            -73 callsubr
            -24 hlineto
            return
          </CharString>
          <CharString index="34">
            30 hlineto
            84 70 47 callsubr
            -70 rlineto
            26 hlineto
            -70 96 rlineto
            return
          </CharString>
          <CharString index="35">
            -41 -37 callsubr
            268 30 callgsubr
            return
          </CharString>
          <CharString index="36">
            40 -10 18 -10 -26 vvcurveto
            -36 -42 -20 -56 -12 vhcurveto
            4 -20 rlineto
            62 10 58 63 callgsubr
            -22 16 -24 8 vhcurveto
            return
          </CharString>
          <CharString index="37">
            -90 -452 rlineto
            28 hlineto
            90 452 rlineto
            108 -86 callsubr
            -108 hlineto
            24 120 rlineto
            58 12 32 52 50 hhcurveto
            26 16 -8 -10 16 hvcurveto
            14 22 rlineto
            12 -18 -20 10 -32 hhcurveto
            -56 -48 -42 -94 -20 hvcurveto
            -24 -120 -64 -4 rlineto
            return
          </CharString>
          <CharString index="38">
            rmoveto
            -84 -48 58 110 152 112 130 108 84 48 -58 -110 -152 -112 -130 -108 hvcurveto
            278 560 rmoveto
            return
          </CharString>
          <CharString index="39">
            rmoveto
            46 40 44 50 50 -30 26 -40 -46 -40 -44 -50 -50 30 -26 40 hvcurveto
            14 148 rmoveto
            30 18 -22 -34 -38 -28 -32 -32 -30 -18 22 34 38 28 32 32 hvcurveto
            endchar
          </CharString>
          <CharString index="40">
            rmoveto
            72 132 42 78 40 70 40 82 rlinecurve
            4 hlineto
            8 -80 10 -76 8 -74 16 -132 rcurveline
            32 -264 rmoveto
            30 hlineto
            41 callgsubr
            18 callsubr
            endchar
          </CharString>
          <CharString index="41">
            30 vstem
            40 hmoveto
            154 hlineto
            232 120 180 224 152 -88 104 -182 hvcurveto
            -104 hlineto
            -98 -634 rmoveto
            33 callgsubr
            78 hlineto
            164 78 -96 -136 -200 -114 -176 -206 hvcurveto
            return
          </CharString>
          <CharString index="42">
            rmoveto
            70 40 58 44 14 hvcurveto
            -24 hlineto
            -36 -14 -32 -40 -50 hhcurveto
            -52 -18 38 38 2 hvcurveto
            -22 hlineto
            -41 -3 19 -61 70 hhcurveto
            endchar
          </CharString>
          <CharString index="43">
            34 20 46 37 54 vvcurveto
            57 -44 38 -56 -66 -52 -44 -64 -30 20 -26 22 -20 vhcurveto
            -4 vlineto
            return
          </CharString>
          <CharString index="44">
            134 454 rmoveto
            60 36 -46 -66 -90 -70 -84 -90 -60 -36 46 66 90 70 84 90 hvcurveto
            return
          </CharString>
          <CharString index="45">
            vvcurveto
            12 -2 10 -6 14 vhcurveto
            endchar
          </CharString>
          <CharString index="46">
            rmoveto
            102 114 72 82 -24 callsubr
            -24 -98 -19 -98 rlineto
            83 hmoveto
            -57 hlineto
            49 246 rlineto
            -18 hlineto
            -228 -252 -4 -18 rlineto
            170 hlineto
            -24 -120 rlineto
            26 hlineto
            24 120 rlineto
            56 hlineto
            endchar
          </CharString>
          <CharString index="47">
            112 80 92 118 30 -14 36 -22 24 hvcurveto
            114 -86 callsubr
            -152 hlineto
            return
          </CharString>
          <CharString index="48">
            30 hlineto
            28 124 48 120 132 128 2 18 rcurveline
            -246 hlineto
            -6 -24 rlineto
            214 hlineto
            -108 -110 -60 -120 -34 -136 rrcurveto
            return
          </CharString>
          <CharString index="49">
            rmoveto
            -130 -54 104 148 -34 callsubr
            hvcurveto
            return
          </CharString>
          <CharString index="50">
            156 98 224 180 return
          </CharString>
          <CharString index="51">
            142 110 150 114 48 39 -26 -66 39 vhcurveto
            -52 -248 rlineto
            return
          </CharString>
          <CharString index="52">
            rmoveto
            -86 46 -46 74 42 34 18 14 24 vhcurveto
            -12 22 rlineto
            -14 -22 -28 -16 -36 hhcurveto
            -72 -34 56 84 14 hvcurveto
            226 hlineto
            6 16 4 18 22 vvcurveto
            54 -22 58 -78 -82 -84 -82 -118 vhcurveto
            36 56 rmoveto
            70 16 60 50 52 hhcurveto
            54 22 -42 -44 -10 0 -10 -4 -14 hvcurveto
            endchar
          </CharString>
          <CharString index="53">
            -14 22 rlineto
            -26 -36 -44 -22 -44 hhcurveto
            return
          </CharString>
          <CharString index="54">
            rmoveto
            492 684 -24 callgsubr
            -492 -684 rlineto
            return
          </CharString>
          <CharString index="55">
            rmoveto
            46 -6 14 -10 -26 vvcurveto
            -27 -18 -17 -46 -16 73 callgsubr
            50 18 32 23 45 vvcurveto
            32 -28 22 -54 4 vhcurveto
            -2 -238 -100 callsubr
            endchar
          </CharString>
          <CharString index="56">
            26 hlineto
            102 callgsubr
            -22 hlineto
            -28 -20 -26 -8 -50 -8 -4 -20 rcurveline
            92 hlineto
            return
          </CharString>
          <CharString index="57">
            rmoveto
            -67 callgsubr
            return
          </CharString>
          <CharString index="58">
            rmoveto
            -1 callsubr
            -210 hlineto
            return
          </CharString>
          <CharString index="59">
            8 callgsubr
            68 338 rlineto
            356 81 callgsubr
            -33 callsubr
            -60 -296 rlineto
            -356 hlineto
            60 296 -24 callgsubr
            return
          </CharString>
          <CharString index="60">
            -107 callsubr
            hintmask 10101111
            return
          </CharString>
          <CharString index="61">
            rmoveto
            48 -2 16 -12 -22 vvcurveto
            -28 -20 -21 -50 -13 73 callgsubr
            55 16 33 26 46 vvcurveto
            28 -30 24 -56 vhcurveto
            endchar
          </CharString>
          <CharString index="62">
            -12 26 7 49 callsubr
            return
          </CharString>
          <CharString index="63">
            rmoveto
            58 18 42 26 50 vvcurveto
            32 -28 26 -68 4 vhcurveto
            -4 -22 rlineto
            60 -6 14 -14 -26 vvcurveto
            -32 -28 -18 -54 -18 vhcurveto
            return
          </CharString>
          <CharString index="64">
            -59 -12 26 248 28 336 26 hstem
            78 28 296 28 vstem
            234 290 rmoveto
            -84 -44 58 90 100 78 88 84 84 50 -80 -108 -18 -1 -18 -1 -17 hvcurveto
            -76 -59 -72 -19 -35 hhcurveto
            -210 -226 rmoveto
            -46 26 38 -30 60 hhcurveto
            160 122 196 260 120 -60 88 -100 -106 -86 -98 -126 -96 56 -70 98 50 64 26 56 50 hvcurveto
            -187 -26 -101 -143 -119 hhcurveto
            -46 -32 22 44 -24 hvcurveto
            endchar
          </CharString>
          <CharString index="65">
            -40 20 44 -40 60 hhcurveto
            70 62 44 76 34 -24 42 -52 14 hvcurveto
            return
          </CharString>
          <CharString index="66">
            -69 callsubr
            hintmask 11011100
            -1 callgsubr
            hintmask 10111100
            -57 callgsubr
            hintmask 11011100
            -31 callsubr
          </CharString>
          <CharString index="67">
            rmoveto
            100 112 44 102 128 vvcurveto
            68 -14 66 -26 52 vhcurveto
            -18 -12 rlineto
            24 -48 8 -70 -54 vvcurveto
            -114 -40 -108 -94 -108 vhcurveto
            endchar
          </CharString>
          <CharString index="68">
            -96 -42 -34 -12 -14 -26 hvcurveto
            66 240 rlineto
            240 -86 callsubr
            -266 hlineto
            -80 -288 18 -14 rlineto
            22 40 30 14 48 hhcurveto
            82 56 return
          </CharString>
          <CharString index="69">
            4 -14 0 -6 -10 vvcurveto
            return
          </CharString>
          <CharString index="70">
            -12 26 7 -21 return
          </CharString>
          <CharString index="71">
            vvcurveto
            -85 callsubr
            46 return
          </CharString>
          <CharString index="72">
            -47 -10 callgsubr
            return
          </CharString>
          <CharString index="73">
            -57 callsubr
            130 54 -104 -148 -156 -98 -224 -180 return
          </CharString>
          <CharString index="74">
            30 -61 callgsubr
            return
          </CharString>
          <CharString index="75">
            44 hmoveto
            28 hlineto
            72 358 rlineto
            74 70 66 32 32 hhcurveto
            62 26 -32 -62 -20 -2 -14 -6 -30 hvcurveto
            -62 -306 rlineto
            23 callgsubr
            62 310 rlineto
            6 28 2 12 24 vvcurveto
            68 -32 48 -80 -46 -62 -36 -66 -68 vhcurveto
            54 -2 -28 48 -80 hhcurveto
            -46 -60 -38 -52 -54 hvcurveto
            -4 hlineto
            return
          </CharString>
          <CharString index="76">
            63 -17 49 -30 32 vhcurveto
            73 11 38 42 51 -62 callsubr
          </CharString>
          <CharString index="77">
            82 42 -42 -46 -58 -48 -32 -54 -54 -30 32 38 -20 hvcurveto
            return
          </CharString>
          <CharString index="78">
            -169 19 callgsubr
            64 378 rmoveto
            -76 38 -40 56 46 40 24 36 34 vhcurveto
            4 hlineto
            -10 -52 rlineto
            22 hlineto
            62 316 rlineto
            -20 hlineto
            11 callgsubr
            -120 hvcurveto
            96 -92 -23 callsubr
          </CharString>
          <CharString index="79">
            rmoveto
            24 hlineto
            -60 134 rlineto
            -34 hlineto
            endchar
          </CharString>
          <CharString index="80">
            3 -234 26 204 26 442 26 -12 -20 return
          </CharString>
          <CharString index="81">
            -16 12 -12 return
          </CharString>
          <CharString index="82">
            vstem
            168 478 rmoveto
            -28 hlineto
            -118 -582 rlineto
            -62 -14 -26 -42 -40 hhcurveto
            -26 -10 6 8 -12 hvcurveto
            -12 -24 rlineto
            -8 14 16 -8 28 hhcurveto
            60 34 50 86 18 hvcurveto
            return
          </CharString>
          <CharString index="83">
            rlineto
            4 hlineto
            return
          </CharString>
          <CharString index="84">
            rmoveto
            -40 -30 30 66 94 74 94 74 28 26 -14 -44 24 hvcurveto
            -30 -152 rlineto
            -42 -38 -48 -32 -40 hhcurveto
            endchar
          </CharString>
          <CharString index="85">
            -4 hlineto
            48 -26 return
          </CharString>
          <CharString index="86">
            -40 -4 50 -54 hhcurveto
            -32 -28 -36 -36 -10 hvcurveto
            endchar
          </CharString>
          <CharString index="87">
            -59 -234 26 360 26 274 26 -14 26 return
          </CharString>
          <CharString index="88">
            -12 33 callsubr
            return
          </CharString>
          <CharString index="89">
            35 callgsubr
            20 -136 35 callgsubr
            endchar
          </CharString>
          <CharString index="90">
            vstem
            -33 callgsubr
            return
          </CharString>
          <CharString index="91">
            21 34 callgsubr
            return
          </CharString>
          <CharString index="92">
            -198 -112 -234 -176 -160 68 -114 144 return
          </CharString>
          <CharString index="93">
            hmoveto
            39 194 rlineto
            91 -86 callsubr
            -92 hlineto
            84 420 rlineto
            -20 hlineto
            -374 -430 -2 -16 rlineto
            279 hlineto
            -39 -194 rlineto
            -194 220 rmoveto
            hintmask 11101000
            232 270 24 28 28 32 28 36 rlinecurve
            4 hlineto
            -10 -42 -12 -43 -6 -31 -50 -250 rcurveline
            endchar
          </CharString>
          <CharString index="94">
            rmoveto
            38 156 8 48 rlineto
            -28 81 callsubr
            endchar
          </CharString>
          <CharString index="95">
            rmoveto
            -54 callgsubr
            return
          </CharString>
          <CharString index="96">
            -17 callsubr
            144 40 callsubr
            return
          </CharString>
          <CharString index="97">
            rlineto
            -28 hlineto
            return
          </CharString>
          <CharString index="98">
            28 vstem
            186 -12 rmoveto
            146 104 250 204 102 -42 108 -98 -146 -104 -252 -204 -104 40 -104 100 hvcurveto
            108 638 rmoveto
            80 34 -92 -98 -176 -94 -246 -128 -80 -32 92 96 174 92 250 128 hvcurveto
            return
          </CharString>
          <CharString index="99">
            rmoveto
            -20 6 -22 8 26 vvcurveto
            36 46 20 56 12 vhcurveto
            -4 20 rlineto
            -62 -10 -62 -28 -56 vvcurveto
            -30 26 -16 30 -10 vhcurveto
            endchar
          </CharString>
          <CharString index="100">
            rmoveto
            72 42 56 42 18 hvcurveto
            -24 hlineto
            -39 -18 -42 -35 -46 hhcurveto
            -46 -22 32 42 2 hvcurveto
            -22 hlineto
            -42 -2 16 -56 72 hhcurveto
            return
          </CharString>
          <CharString index="101">
            -19 callgsubr
            hintmask 11010000
            -30 -18 -46 -14 -48 -6 rrcurveto
            hintmask 10110000
            -4 -20 rlineto
            112 hlineto
            return
          </CharString>
          <CharString index="102">
            -30 -48 -58 0 callgsubr
            return
          </CharString>
          <CharString index="103">
            54 50 -12 callsubr
            return
          </CharString>
          <CharString index="104">
            62 10 88 56 100 vvcurveto
            88 -68 54 -122 vhcurveto
            -156 hlineto
            -30 -296 rmoveto
            31 callgsubr
            116 hlineto
            122 54 -44 -74 -88 -76 -64 -152 hvcurveto
            -186 -338 rmoveto
            64 312 rlineto
            140 hlineto
            return
          </CharString>
          <CharString index="105">
            rmoveto
            16 16 16 20 18 -10 10 -16 -16 -16 -16 -22 -16 10 -10 16 hvcurveto
            return
          </CharString>
          <CharString index="106">
            210 -86 callsubr
            return
          </CharString>
          <CharString index="107">
            26 312 76 callgsubr
            return
          </CharString>
          <CharString index="108">
            67 callgsubr
            -200 -192 -49 callsubr
            endchar
          </CharString>
          <CharString index="109">
            -61 callgsubr
            -86 return
          </CharString>
          <CharString index="110">
            vstem
            324 168 rmoveto
            98 492 -24 callgsubr
            -98 -490 rlineto
            -92 -18 -50 -64 -78 hhcurveto
            -62 -40 28 60 -18 hvcurveto
            -26 -12 rlineto
            -58 20 44 -44 80 hhcurveto
            94 64 70 110 20 hvcurveto
            return
          </CharString>
          <CharString index="111">
            -22 callsubr
            -42 32 -77 callgsubr
            return
          </CharString>
          <CharString index="112">
            rmoveto
            46 40 40 50 50 -30 24 -40 -46 -40 -40 -50 -50 30 -24 40 hvcurveto
            14 142 rmoveto
            30 18 -20 -34 -38 -28 -28 -32 -30 -18 20 34 38 28 28 32 hvcurveto
            endchar
          </CharString>
          <CharString index="113">
            -64 -52 -30 -48 -56 vhcurveto
            18 -22 rlineto
            50 50 54 24 48 hhcurveto
            return
          </CharString>
          <CharString index="114">
            55 -12 26 276 26 330 26 return
          </CharString>
          <CharString index="115">
            -101 callsubr
            hintmask 10111110
            return
          </CharString>
          <CharString index="116">
            32 hlineto
            50 244 68 182 202 194 4 20 rcurveline
            -372 hlineto
            -6 -26 rlineto
            336 hlineto
            -184 -182 -74 -178 -56 -254 rrcurveto
            endchar
          </CharString>
          <CharString index="117">
            rmoveto
            26 hlineto
            98 104 rlineto
            -34 hlineto
            42 -104 rmoveto
            26 hlineto
            98 104 rlineto
            -34 hlineto
            endchar
          </CharString>
          <CharString index="118">
            97 47 callgsubr
            return
          </CharString>
          <CharString index="119">
            316 rmoveto
            390 -160 rlineto
            28 vlineto
            -230 94 -122 50 rlineto
            4 vlineto
            122 50 230 94 rlineto
            28 vlineto
            -390 -160 rlineto
            endchar
          </CharString>
          <CharString index="120">
            -164 132 rmoveto
            26 8 22 22 16 hhcurveto
            return
          </CharString>
          <CharString index="121">
            -225 22 callsubr
            return
          </CharString>
          <CharString index="122">
            hmoveto
            20 16 18 20 50 callgsubr
            return
          </CharString>
          <CharString index="123">
            390 160 rlineto
            28 vlineto
            -390 160 rlineto
            -28 vlineto
            230 -94 122 -50 rlineto
            -4 vlineto
            -122 -50 -230 -94 rlineto
            endchar
          </CharString>
          <CharString index="124">
            70 28 54 66 74 vvcurveto
            24 -11 18 -21 -24 -16 -22 -20 -18 12 -12 18 vhcurveto
            2 2 0 2 hhcurveto
            -7 -49 -38 -41 -51 -24 rrcurveto
            return
          </CharString>
          <CharString index="125">
            -30 hlineto
            -366 -660 rlineto
            34 hlineto
            130 238 rlineto
            257 hlineto
            return
          </CharString>
          <CharString index="126">
            -107 -222 26 674 -20 return
          </CharString>
          <CharString index="127">
            26 hstem
            228 28 vstem
            228 110 rmoveto
            28 208 180 26 -180 202 -28 -202 -180 -26 180 hlineto
            return
          </CharString>
          <CharString index="128">
            26 7 59 callsubr
            232 -20 hstemhm
            46 28 return
          </CharString>
          <CharString index="129">
            0 73 callsubr
            return
          </CharString>
          <CharString index="130">
            103 callgsubr
            10 -10 16 hvcurveto
            return
          </CharString>
          <CharString index="131">
            rmoveto
            40 30 -30 -66 -94 -74 -94 -74 -28 -26 14 44 -24 hvcurveto
            34 168 rlineto
            34 38 44 24 40 hhcurveto
            endchar
          </CharString>
          <CharString index="132">
            14 callgsubr
            64 26 return
          </CharString>
          <CharString index="133">
            vstem
            66 71 callsubr
            return
          </CharString>
          <CharString index="134">
            -62 -58 -72 -40 -56 hhcurveto
            return
          </CharString>
          <CharString index="135">
            rmoveto
            -30 hlineto
            hintmask 11011000
            -90 -76 rlineto
            -4 hlineto
            hintmask 10101000
            -58 76 rlineto
            -26 hlineto
            hintmask 11011000
            99 callsubr
          </CharString>
          <CharString index="136">
            -32 callgsubr
            96 return
          </CharString>
          <CharString index="137">
            26 646 -20 return
          </CharString>
          <CharString index="138">
            122 -2 6 30 -122 -2 30 150 -24 callgsubr
            -28 -150 -122 2 -6 -30 124 2 return
          </CharString>
          <CharString index="139">
            -233 236 28 hstem
            36 212 vstem
            36 236 rmoveto
            206 hlineto
            6 28 rlineto
            -206 hlineto
            endchar
          </CharString>
          <CharString index="140">
            26 450 26 return
          </CharString>
          <CharString index="141">
            vstem
            348 785 rmoveto
            4 hlineto
            58 -76 rlineto
            26 hlineto
            -72 102 -19 callgsubr
            -112 -102 rlineto
            30 hlineto
            return
          </CharString>
          <CharString index="142">
            -148 -110 -150 -120 -48 -40 return
          </CharString>
          <CharString index="143">
            8 -16 -14 4 -22 hhcurveto
            return
          </CharString>
          <CharString index="144">
            vstem
            98 428 51 callgsubr
            return
          </CharString>
          <CharString index="145">
            -15 -12 26 432 22 -4 26 return
          </CharString>
          <CharString index="146">
            -299 21 101 callgsubr
            return
          </CharString>
          <CharString index="147">
            722 -10 callsubr
            return
          </CharString>
          <CharString index="148">
            40 hmoveto
            30 hlineto
            return
          </CharString>
          <CharString index="149">
            -78 -58 callgsubr
            return
          </CharString>
          <CharString index="150">
            -48 710 -74 callsubr
            return
          </CharString>
          <CharString index="151">
            -41 callgsubr
            120 26 return
          </CharString>
          <CharString index="152">
            118 68 -58 -77 -129 -102 -48 -150 hvcurveto
            return
          </CharString>
          <CharString index="153">
            hstemhm
            40 28 318 28 return
          </CharString>
          <CharString index="154">
            -24 callsubr
            56 return
          </CharString>
          <CharString index="155">
            -199 272 87 callgsubr
            120 24 42 90 hstem
            66 27 213 26 vstem
            return
          </CharString>
          <CharString index="156">
            -21 478 -20 return
          </CharString>
          <CharString index="157">
            vstem
            134 478 rmoveto
            22 hlineto
            30 130 56 callgsubr
            return
          </CharString>
          <CharString index="158">
            710 rmoveto
            -78 102 rlineto
            -34 hlineto
            86 -102 rlineto
            return
          </CharString>
          <CharString index="159">
            159 0 26 428 24 return
          </CharString>
          <CharString index="160">
            rmoveto
            33 27 33 33 27 -12 21 -27 -33 -30 -36 -33 -24 15 -21 27 hvcurveto
            return
          </CharString>
          <CharString index="161">
            87 callgsubr
            202 24 hstem
            return
          </CharString>
          <CharString index="162">
            68 callgsubr
            hstemhm
            return
          </CharString>
          <CharString index="163">
            rmoveto
            -30 hlineto
            62 -104 rlineto
            22 hlineto
            return
          </CharString>
          <CharString index="164">
            hstemhm
            62 30 462 30 return
          </CharString>
          <CharString index="165">
            92 -23 77 -46 49 vhcurveto
            return
          </CharString>
          <CharString index="166">
            -21 464 26 return
          </CharString>
          <CharString index="167">
            -83 -50 59 295 -10 callsubr
            -63 -315 -73 -43 -6 -34 72 42 return
          </CharString>
          <CharString index="168">
            1 2 0 1 hhcurveto
            return
          </CharString>
          <CharString index="169">
            28 190 28 vstem
            return
          </CharString>
          <CharString index="170">
            112 102 -24 callgsubr
            -90 -76 rlineto
            -4 hlineto
            -58 76 rlineto
            -26 hlineto
            return
          </CharString>
          <CharString index="171">
            -144 -722 rlineto
            290 464 rmoveto
            70 44 -51 -101 hvcurveto
            return
          </CharString>
          <CharString index="172">
            hhcurveto
            73 49 34 38 38 hvcurveto
            -18 20 rlineto
            -36 -37 -45 -30 -58 return
          </CharString>
          <CharString index="173">
            -17 21 59 callsubr
            232 -20 return
          </CharString>
          <CharString index="174">
            hstem
            82 30 556 30 vstem
            return
          </CharString>
          <CharString index="175">
            -21 338 26 296 -20 return
          </CharString>
          <CharString index="176">
            -23 21 -21 632 28 return
          </CharString>
          <CharString index="177">
            -202 26 164 26 return
          </CharString>
          <CharString index="178">
            270 rmoveto
            26 hlineto
            return
          </CharString>
          <CharString index="179">
            50 hvcurveto
            4 hlineto
            return
          </CharString>
          <CharString index="180">
            26 608 26 return
          </CharString>
          <CharString index="181">
            -59 218 26 172 26 hstem
            48 388 vstem
            436 return
          </CharString>
          <CharString index="182">
            -301 -202 26 197 49 callsubr
            hstem
            -44 30 return
          </CharString>
          <CharString index="183">
            hlineto
            170 106 72 144 104 -72 46 -120 hvcurveto
            return
          </CharString>
          <CharString index="184">
            26 7 59 callsubr
            232 -20 hstemhm
            448 28 return
          </CharString>
          <CharString index="185">
            26 308 26 278 26 hstemhm
            return
          </CharString>
          <CharString index="186">
            -301 -234 26 686 -20 return
          </CharString>
          <CharString index="187">
            570 134 hstem
            return
          </CharString>
          <CharString index="188">
            hlineto
            -40 -204 rlineto
            return
          </CharString>
          <CharString index="189">
            -289 -12 7 callgsubr
            return
          </CharString>
          <CharString index="190">
            704 rmoveto
            -38 hlineto
            -116 -134 rlineto
            28 hlineto
            return
          </CharString>
          <CharString index="191">
            -16 callsubr
            hstem
            return
          </CharString>
          <CharString index="192">
            -154 26 149 -21 return
          </CharString>
          <CharString index="193">
            -192 68 112 26 return
          </CharString>
          <CharString index="194">
            38 34 vhcurveto
            2 hlineto
            hintmask 1101111110000000
            -44 8 28 return
          </CharString>
          <CharString index="195">
            -21 444 26 114 26 -26 138 hstemhm
            return
          </CharString>
          <CharString index="196">
            -225 -12 26 438 26 return
          </CharString>
          <CharString index="197">
            -21 69 callgsubr
            return
          </CharString>
          <CharString index="198">
            70 callgsubr
            hstem
            return
          </CharString>
          <CharString index="199">
            478 -10 callsubr
            return
          </CharString>
          <CharString index="200">
            -12 42 callsubr
            return
          </CharString>
          <CharString index="201">
            28 228 28 return
          </CharString>
          <CharString index="202">
            -131 -19 callsubr
            hstem
            80 28 return
          </CharString>
          <CharString index="203">
            rlineto
            -122 hlineto
            -4 -22 rlineto
            146 hlineto
            return
          </CharString>
          <CharString index="204">
            706 29 callsubr
            94 rlineto
            -38 hlineto
            return
          </CharString>
          <CharString index="205">
            24 164 24 hstemhm
            280 28 -4 28 return
          </CharString>
          <CharString index="206">
            72 -102 95 callgsubr
          </CharString>
          <CharString index="207">
            -10 22 rlineto
            -8 return
          </CharString>
          <CharString index="208">
            24 366 24 return
          </CharString>
          <CharString index="209">
            24 108 24 return
          </CharString>
        <CharString name=".notdef">
          85 0 32 596 32 hstem
          42 546 vstem
          42 hmoveto
          416 hlineto
          130 660 rlineto
          -416 hlineto
          122 -320 rmoveto
          -198 -268 106 538 rlineto
          140 -270 rmoveto
          202 270 -110 -538 rlineto
          -206 136 rmoveto
          82 104 -24 callsubr
          40 -104 60 -176 rlineto
          -318 hlineto
          228 332 rmoveto
          -4 hlineto
          -34 92 -56 172 rlineto
          292 hlineto
          -126 -172 rlineto
          endchar
        </CharString>
        <CharString name="A">
          -62 callgsubr
          hstem
          -46 480 vstem
          132 264 -67 callsubr
        </CharString>
        <CharString name="AE">
          259 0 26 200 26 86 76 callgsubr
          hstem
          -32 836 vstem
          394 252 rmoveto
          -205 hlineto
          103 140 58 80 58 80 58 80 rlinecurve
          4 hlineto
          328 2 rmoveto
          6 26 rlineto
          -346 hlineto
          -490 -660 rlineto
          36 hlineto
          166 226 rlineto
          219 hlineto
          -45 -226 rlineto
          336 -86 callsubr
          -308 hlineto
          64 312 rlineto
          248 -86 callsubr
          -250 hlineto
          31 callgsubr
          endchar
        </CharString>
        <CharString name="Aacute">
          -62 callgsubr
          50 102 hstem
          -46 496 vstem
          450 25 callgsubr
          42 -446 -102 callsubr
          endchar
        </CharString>
        <CharString name="Abreve">
          -62 callgsubr
          50 26 hstem
          246 22 vstem
          18 callgsubr
          -84 -548 -102 callsubr
          endchar
        </CharString>
        <CharString name="Acircumflex">
          -62 callgsubr
          125 26 hstem
          -46 482 34 callsubr
          114 -445 -102 callsubr
          endchar
        </CharString>
        <CharString name="Adieresis">
          -62 callgsubr
          66 64 hstem
          240 58 88 58 vstem
          412 726 -2 callsubr
          -146 hmoveto
          16 16 16 20 18 -10 10 -16 -16 -16 -16 -22 -16 10 -10 16 hvcurveto
          106 -462 -102 callsubr
          endchar
        </CharString>
        <CharString name="Agrave">
          -62 callgsubr
          50 102 hstem
          -46 480 vstem
          364 51 callsubr
          -206 -446 -67 callsubr
        </CharString>
        <CharString name="Amacron">
          -62 callgsubr
          76 26 hstem
          -46 494 vstem
          372 264 -102 callsubr
          -112 102 rmoveto
          -6 -26 rlineto
          -1 callsubr
          endchar
        </CharString>
        <CharString name="Aogonek">
          -35 -202 26 197 -45 callgsubr
          hstem
          312 30 vstem
          132 264 rmoveto
          72 132 42 78 40 70 40 82 rlinecurve
          4 hlineto
          8 -80 10 -76 8 -74 16 -132 rcurveline
          -22 396 rmoveto
          18 callsubr
          29 -238 rlineto
          2 hlineto
          -48 -34 -46 -55 -51 -36 callsubr
          40 48 52 40 hvcurveto
          endchar
        </CharString>
        <CharString name="Aring">
          -62 callgsubr
          38 22 120 22 hstem
          266 102 callsubr
          vstem
          350 840 rmoveto
          30 18 -20 -34 -38 -28 -28 -32 -30 -18 20 34 38 28 28 32 hvcurveto
          -14 -142 rmoveto
          46 40 40 50 50 -30 24 -40 -46 -40 -40 -50 -50 30 -24 40 hvcurveto
          -204 -434 -67 callsubr
        </CharString>
        <CharString name="Atilde">
          -62 callgsubr
          56 24 38 24 hstem
          -46 513 vstem
          372 264 -102 callsubr
          95 140 -17 callgsubr
          endchar
        </CharString>
        <CharString name="B">
          51 -29 callgsubr
          hstemhm
          464 30 -6 30 hintmask 11110000
          40 hmoveto
          190 hlineto
          45 callgsubr
          4 vlineto
          hintmask 11101000
          -3 callsubr
          hintmask 11110000
          45 callsubr
          endchar
        </CharString>
        <CharString name="C">
          21 47 callgsubr
          hstem
          58 30 -83 callsubr
          endchar
        </CharString>
        <CharString name="Cacute">
          21 47 callgsubr
          hstem
          58 30 -83 callsubr
          306 464 -39 callgsubr
        </CharString>
        <CharString name="Ccaron">
          21 47 callgsubr
          38 26 hstem
          58 30 -83 callsubr
          462 566 -68 callgsubr
        </CharString>
        <CharString name="Ccedilla">
          21 -11 25 632 26 hstem
          58 30 178 26 vstem
          208 -74 rmoveto
          -71 callsubr
          34 48 71 1 54 25 55 46 rlinecurve
          -18 20 rlineto
          -42 -50 -48 -24 -64 hhcurveto
          -134 -58 104 134 170 108 224 192 62 42 -36 -46 26 hvcurveto
          24 16 rlineto
          48 -30 -48 44 -74 hhcurveto
          -210 -122 -234 -192 -137 64 -108 131 -12 hvcurveto
          endchar
        </CharString>
        <CharString name="Ccircumflex">
          21 47 callgsubr
          113 26 hstem
          58 30 -83 callsubr
          232 463 -80 callgsubr
          endchar
        </CharString>
        <CharString name="Cdotaccent">
          21 47 callgsubr
          hstem
          58 30 284 64 -83 callsubr
          342 480 -105 callsubr
        </CharString>
        <CharString name="D">
          57 22 callsubr
          hstem
          516 -66 callsubr
          endchar
        </CharString>
        <CharString name="Dcaron">
          57 22 callsubr
          50 26 hstem
          516 -66 callsubr
          288 786 -68 callgsubr
        </CharString>
        <CharString name="Dcroat">
          -31 callgsubr
        </CharString>
        <CharString name="E">
          -41 callgsubr
          -81 callsubr
          endchar
        </CharString>
        <CharString name="Eacute">
          -41 callgsubr
          -26 178 hstemhm
          40 474 hintmask 11101000
          -99 callgsubr
          148 50 -32 callgsubr
          hintmask 11011000
          120 102 rlineto
          -38 hlineto
          endchar
        </CharString>
        <CharString name="Ebreve">
          -41 callgsubr
          50 26 hstem
          264 22 vstem
          -99 callgsubr
          178 50 -65 callsubr
        </CharString>
        <CharString name="Ecaron">
          -41 callgsubr
          -26 178 -102 26 hstemhm
          40 474 hintmask 11100100
          -99 callgsubr
          hintmask 11010100
          304 152 rmoveto
          -30 hlineto
          hintmask 11101100
          -90 -76 rlineto
          -4 hlineto
          hintmask 11010100
          -58 76 rlineto
          -26 hlineto
          hintmask 11101100
          99 callsubr
        </CharString>
        <CharString name="Ecircumflex">
          -41 callgsubr
          125 26 -81 callsubr
          74 49 -80 callgsubr
          endchar
        </CharString>
        <CharString name="Edieresis">
          -41 callgsubr
          -26 156 hstemhm
          258 58 88 58 hintmask 11101100
          -99 callgsubr
          hintmask 11011100
          112 66 rmoveto
          -102 callgsubr
        </CharString>
        <CharString name="Edotaccent">
          -41 callgsubr
          hstem
          328 64 vstem
          -99 callgsubr
          184 66 -105 callsubr
        </CharString>
        <CharString name="Egrave">
          -41 callgsubr
          -81 callsubr
          184 50 2 callgsubr
        </CharString>
        <CharString name="Emacron">
          -41 callgsubr
          76 26 -81 callsubr
          78 76 -49 callsubr
          endchar
        </CharString>
        <CharString name="Eogonek">
          -31 -202 26 176 0 callsubr
          hstem
          238 30 vstem
          40 hmoveto
          290 hlineto
          -44 -5 callsubr
          50 60 78 62 6 hvcurveto
          6 26 rlineto
          -322 hlineto
          64 312 rlineto
          262 -86 callsubr
          -264 hlineto
          31 callgsubr
          312 -86 callsubr
          -342 hlineto
          endchar
        </CharString>
        <CharString name="Eth">
          -31 callgsubr
        </CharString>
        <CharString name="Euro">
          -59 -12 26 239 24 83 24 242 26 hstemhm
          86 28 -15 28 hintmask 11110100
          50 380 rmoveto
          -6 -20 rlineto
          55 hlineto
          hintmask 11111000
          -6 -27 -4 -28 -2 -28 -57 -4 rcurveline
          -6 -20 rlineto
          62 hlineto
          -171 -6 70 -94 108 65 callsubr
          hhcurveto
          -91 -60 85 154 5 hvcurveto
          236 hlineto
          6 24 rlineto
          -241 hlineto
          2 29 5 27 5 27 rrcurveto
          283 hlineto
          6 24 rlineto
          -283 hlineto
          142 39 91 100 95 hhcurveto
          60 30 -36 -48 24 hvcurveto
          24 14 rlineto
          50 -24 -40 46 -72 hhcurveto
          hintmask 11110100
          -111 -103 -111 -157 -41 hvcurveto
          endchar
        </CharString>
        <CharString name="F">
          -67 21 -21 326 26 282 26 hstem
          40 474 8 callgsubr
          66 326 rlineto
          262 -86 callsubr
          -264 hlineto
          56 282 rlineto
          312 -86 callsubr
          -342 hlineto
          endchar
        </CharString>
        <CharString name="G">
          82 callgsubr
          -98 callgsubr
          endchar
        </CharString>
        <CharString name="Gbreve">
          7 callsubr
          38 26 hstem
          58 30 220 22 -98 callgsubr
          336 464 -65 callsubr
        </CharString>
        <CharString name="Gcaron">
          7 callsubr
          38 26 hstem
          58 30 -98 callgsubr
          462 566 -68 callgsubr
        </CharString>
        <CharString name="Gcircumflex">
          7 callsubr
          113 26 hstem
          58 30 -98 callgsubr
          232 463 -80 callgsubr
          endchar
        </CharString>
        <CharString name="Gdotaccent">
          82 callgsubr
          284 64 -98 callgsubr
          342 480 -105 callsubr
        </CharString>
        <CharString name="H">
          83 21 68 callsubr
          hstem
          40 548 -48 callsubr
          endchar
        </CharString>
        <CharString name="Hbar">
          115 21 -21 338 26 132 26 -26 164 hstemhm
          54 594 hintmask 11101000
          512 364 rmoveto
          -356 hlineto
          27 132 rlineto
          356 hlineto
          109 26 rmoveto
          -74 74 callgsubr
          rlineto
          -356 74 callgsubr
          -72 -2 -6 -24 rlineto
          73 hlineto
          -99 -496 rlineto
          30 hlineto
          68 338 rlineto
          356 81 callgsubr
          30 hlineto
          99 496 rlineto
          73 hlineto
          endchar
        </CharString>
        <CharString name="Hcircumflex">
          83 21 68 callsubr
          145 26 hstem
          40 548 -48 callsubr
          100 49 -80 callgsubr
          endchar
        </CharString>
        <CharString name="I">
          -297 84 callsubr
          40 162 vstem
          40 hmoveto
          -33 callsubr
          endchar
        </CharString>
        <CharString name="I.a">
          79 callgsubr
          -8 340 -89 callgsubr
          endchar
        </CharString>
        <CharString name="Iacute">
          -297 84 callsubr
          40 268 vstem
          40 hmoveto
          -33 callsubr
          -12 50 -39 callgsubr
        </CharString>
        <CharString name="Iacute.a">
          79 callgsubr
          -8 350 -89 callgsubr
          196 684 -39 callgsubr
        </CharString>
        <CharString name="Icircumflex">
          -297 -16 callsubr
          145 26 hstem
          40 254 vstem
          40 hmoveto
          30 2 callsubr
          49 -80 callgsubr
          endchar
        </CharString>
        <CharString name="Icircumflex.a">
          14 callsubr
          126 26 hstem
          -8 340 -89 callgsubr
          122 684 -80 callgsubr
          endchar
        </CharString>
        <CharString name="Idieresis">
          -297 -16 callsubr
          86 64 hstem
          98 58 88 58 vstem
          40 hmoveto
          -33 callsubr
          -48 66 rmoveto
          -102 callgsubr
        </CharString>
        <CharString name="Idieresis.a">
          14 callsubr
          66 64 hstem
          132 58 88 58 -89 callgsubr
          160 700 rmoveto
          -102 callgsubr
        </CharString>
        <CharString name="Idotaccent">
          -297 84 callsubr
          168 64 vstem
          40 hmoveto
          -33 callsubr
          24 66 -105 callsubr
        </CharString>
        <CharString name="Idotaccent.a">
          79 callgsubr
          202 64 -89 callgsubr
          232 700 -105 callsubr
        </CharString>
        <CharString name="Igrave">
          -297 84 callsubr
          40 182 vstem
          40 hmoveto
          -33 callsubr
          24 50 2 callgsubr
        </CharString>
        <CharString name="Igrave.a">
          79 callgsubr
          -8 340 -89 callgsubr
          232 684 2 callgsubr
        </CharString>
        <CharString name="Imacron">
          -297 -16 callsubr
          96 26 hstem
          40 266 vstem
          40 hmoveto
          -33 callsubr
          -82 76 -49 callsubr
          endchar
        </CharString>
        <CharString name="Imacron.a">
          14 callsubr
          76 26 hstem
          -8 348 -89 callgsubr
          126 710 -49 callsubr
          endchar
        </CharString>
        <CharString name="Iogonek">
          -297 -202 26 197 34 callgsubr
          hstem
          -42 30 vstem
          -12 -134 rmoveto
          46 42 52 40 36 vhcurveto
          132 660 -24 callgsubr
          -132 -660 rlineto
          2 21 callgsubr
          hvcurveto
          endchar
        </CharString>
        <CharString name="Iogonek.a">
          -225 -202 26 176 73 callsubr
          hstem
          -2 30 vstem
          -8 hmoveto
          90 21 callgsubr
          46 42 52 40 36 hvcurveto
          88 -86 callsubr
          -90 hlineto
          33 callgsubr
          90 -86 callsubr
          -208 hlineto
          -6 -26 rlineto
          88 hlineto
          -122 -608 rlineto
          -86 hlineto
          endchar
        </CharString>
        <CharString name="Itilde">
          -297 -16 callsubr
          76 24 38 24 hstem
          40 285 vstem
          40 hmoveto
          -33 callsubr
          -79 58 -85 callgsubr
        </CharString>
        <CharString name="Itilde.a">
          14 callsubr
          56 24 38 24 hstem
          -8 367 -89 callgsubr
          129 692 -85 callgsubr
        </CharString>
        <CharString name="J">
          -87 10 callgsubr
          hstem
          2 420 3 callsubr
          endchar
        </CharString>
        <CharString name="Jcircumflex">
          -87 10 callgsubr
          145 26 hstem
          2 512 3 callsubr
          -18 541 -80 callgsubr
          endchar
        </CharString>
        <CharString name="K">
          7 84 callsubr
          40 524 -28 callgsubr
          endchar
        </CharString>
        <CharString name="L">
          90 callgsubr
          40 336 vstem
          -49 callgsubr
          endchar
        </CharString>
        <CharString name="Lacute">
          90 callgsubr
          40 336 vstem
          -49 callgsubr
          -12 50 -39 callgsubr
        </CharString>
        <CharString name="Lcaron">
          90 callgsubr
          40 381 vstem
          -49 callgsubr
          203 -144 -13 callsubr
        </CharString>
        <CharString name="Ldot">
          58 callgsubr
          hstemhm
          40 338 -68 68 hintmask 11100000
          -49 callgsubr
          hintmask 11010000
          166 -368 -50 callsubr
          endchar
        </CharString>
        <CharString name="Lslash">
          90 callgsubr
          -2 378 vstem
          76 26 rmoveto
          50 250 210 100 6 32 -210 -100 70 352 -24 callgsubr
          -74 -368 -94 -44 -6 -32 94 44 -52 -260 rlineto
          330 -86 callsubr
          endchar
        </CharString>
        <CharString name="M">
          99 callgsubr
          40 626 -22 callgsubr
          endchar
        </CharString>
        <CharString name="N">
          91 callsubr
          40 550 -93 callsubr
          endchar
        </CharString>
        <CharString name="Nacute">
          91 callsubr
          40 550 -93 callsubr
          182 50 -39 callgsubr
        </CharString>
        <CharString name="Ncaron">
          70 callgsubr
          50 26 hstem
          40 550 -93 callsubr
          338 152 -68 callgsubr
        </CharString>
        <CharString name="Ntilde">
          70 callgsubr
          56 24 38 24 hstem
          40 550 -93 callsubr
          115 58 -85 callgsubr
        </CharString>
        <CharString name="O">
          11 callsubr
          -100 callgsubr
          endchar
        </CharString>
        <CharString name="OE">
          287 -29 callgsubr
          hstem
          62 30 vstem
          62 256 rmoveto
          -152 88 -104 182 vhcurveto
          376 -86 callsubr
          -298 hlineto
          64 312 rlineto
          238 -86 callsubr
          -240 hlineto
          31 callgsubr
          288 -86 callsubr
          -418 hlineto
          -232 -120 -180 -224 hvcurveto
          448 378 rmoveto
          -122 -608 rlineto
          -54 hlineto
          -164 -78 96 136 200 114 176 206 hvcurveto
          endchar
        </CharString>
        <CharString name="Oacute">
          11 callsubr
          -100 callgsubr
          -6 64 -39 callgsubr
        </CharString>
        <CharString name="Ocircumflex">
          11 callsubr
          113 26 -100 callgsubr
          -80 63 -80 callgsubr
          endchar
        </CharString>
        <CharString name="Odieresis">
          11 callsubr
          54 64 hstem
          62 30 210 58 88 58 48 -104 callsubr
          -42 80 rmoveto
          -102 callgsubr
        </CharString>
        <CharString name="Ograve">
          11 callsubr
          -100 callgsubr
          30 64 2 callgsubr
        </CharString>
        <CharString name="Ohorn">
          38 callgsubr
          57 callsubr
          14 30 hintmask 10111000
          276 14 -58 callsubr
          hintmask 11011100
          -23 callgsubr
          hintmask 10111000
          -64 callgsubr
          hintmask 11011000
          58 callsubr
          hintmask 11011100
          68 11 45 42 53 -62 callsubr
        </CharString>
        <CharString name="Ohungarumlaut">
          11 callsubr
          38 104 -100 callgsubr
          -60 64 10 callsubr
        </CharString>
        <CharString name="Omacron">
          11 callsubr
          64 26 -100 callgsubr
          -76 90 -49 callsubr
          endchar
        </CharString>
        <CharString name="Oslash">
          97 -12 26 3 -21 650 26 -12 -20 57 callsubr
          hintmask 10101100
          531 537 rmoveto
          16 -39 7 -49 -55 vvcurveto
          -156 -98 -224 -180 -70 -47 30 50 -30 vhcurveto
          -13 27 rmoveto
          -16 40 -8 49 56 vvcurveto
          -57 callsubr
          72 48 -32 -53 29 vhcurveto
          hintmask 10011100
          123 99 rmoveto
          hintmask 01101100
          -16 18 -86 -94 rlineto
          55 -35 -56 33 -77 hhcurveto
          -198 -112 -234 -176 -64 11 -56 22 -45 hvcurveto
          -93 -101 rlineto
          hintmask 10011100
          22 -18 85 94 rlineto
          -53 35 55 -31 75 hhcurveto
          16 callgsubr
          63 -10 55 -22 45 hvcurveto
          endchar
        </CharString>
        <CharString name="Otilde">
          11 callsubr
          44 24 38 24 -100 callgsubr
          -73 72 -85 callgsubr
        </CharString>
        <CharString name="P">
          9 21 -21 294 26 314 26 hstem
          502 30 8 callgsubr
          58 294 rlineto
          128 76 callsubr
          -168 hlineto
          -38 -340 rmoveto
          62 314 rlineto
          126 66 callgsubr
        </CharString>
        <CharString name="Q">
          97 -150 28 110 26 632 26 hstem
          62 30 462 30 vstem
          92 266 rmoveto
          -34 callsubr
          -130 -54 104 148 vhcurveto
          396 -382 rmoveto
          -4 -16 -14 -2 -16 hhcurveto
          -84 -65 36 74 -18 hvcurveto
          197 112 234 176 160 -68 114 -144 -198 -112 -234 -176 -149 59 -109 124 -14 hvcurveto
          -97 22 80 -43 93 hhcurveto
          20 14 2 4 18 hvcurveto
          endchar
        </CharString>
        <CharString name="R">
          7 21 83 callgsubr
          138 336 -94 callsubr
        </CharString>
        <CharString name="Racute">
          46 callgsubr
          50 102 hstem
          492 30 vstem
          468 25 callgsubr
          -210 -374 -94 callsubr
        </CharString>
        <CharString name="Rcaron">
          46 callgsubr
          50 26 hstem
          492 30 vstem
          364 710 rmoveto
          63 callsubr
          72 -102 rlineto
          -202 -374 -94 callsubr
        </CharString>
        <CharString name="S">
          -27 47 callgsubr
          hstem
          130 30 248 30 vstem
          -96 callgsubr
          endchar
        </CharString>
        <CharString name="Sacute">
          -27 47 callgsubr
          hstem
          130 30 248 30 vstem
          -96 callgsubr
          266 594 -39 callgsubr
        </CharString>
        <CharString name="Scaron">
          -27 47 callgsubr
          36 26 hstem
          130 30 248 30 vstem
          -96 callgsubr
          422 696 -68 callgsubr
        </CharString>
        <CharString name="Scircumflex">
          -27 47 callgsubr
          112 26 hstem
          130 30 248 30 vstem
          -96 callgsubr
          192 594 -80 callgsubr
          endchar
        </CharString>
        <CharString name="T">
          69 callsubr
          hstem
          100 448 vstem
          -35 callgsubr
          endchar
        </CharString>
        <CharString name="Tcaron">
          69 callsubr
          -28 180 -102 26 hstemhm
          100 448 hintmask 11011000
          -35 callgsubr
          hintmask 10101000
          144 180 28 callsubr
        </CharString>
        <CharString name="Thorn">
          21 21 -21 170 26 314 26 -26 150 hstemhm
          476 30 hintmask 11101000
          41 callsubr
          34 170 rlineto
          126 76 callsubr
          -136 hlineto
          hintmask 11011000
          24 124 -24 callgsubr
          -62 -464 rmoveto
          hintmask 11101000
          62 314 rlineto
          124 66 callgsubr
        </CharString>
        <CharString name="U">
          -14 callgsubr
          hstem
          82 30 -103 callgsubr
          endchar
        </CharString>
        <CharString name="Uacute">
          -14 callgsubr
          hstem
          82 30 -103 callgsubr
          182 50 -39 callgsubr
        </CharString>
        <CharString name="Ubreve">
          -14 callgsubr
          70 26 hstem
          82 30 184 22 -103 callgsubr
          212 50 -65 callsubr
        </CharString>
        <CharString name="Ucircumflex">
          -14 callgsubr
          145 26 hstem
          82 30 -103 callgsubr
          108 49 -80 callgsubr
          endchar
        </CharString>
        <CharString name="Udieresis">
          -14 callgsubr
          86 64 hstem
          82 30 178 58 88 58 -103 callgsubr
          146 66 rmoveto
          -102 callgsubr
        </CharString>
        <CharString name="Ugrave">
          -14 callgsubr
          hstem
          82 30 -103 callgsubr
          218 50 2 callgsubr
        </CharString>
        <CharString name="Uhorn">
          85 10 callgsubr
          67 callsubr
          664 766 -94 callgsubr
        </CharString>
        <CharString name="Uhungarumlaut">
          -14 callgsubr
          70 104 hstem
          82 30 -103 callgsubr
          128 50 10 callsubr
        </CharString>
        <CharString name="Umacron">
          -14 callgsubr
          96 26 hstem
          82 30 -103 callgsubr
          112 76 -49 callsubr
          endchar
        </CharString>
        <CharString name="Uogonek">
          79 70 callsubr
          646 -20 hstem
          82 30 56 30 vstem
          586 660 rmoveto
          -96 callsubr
          -80 -398 rlineto
          -6 -32 -2 -24 -26 vvcurveto
          -114 60 -68 108 -10 vhcurveto
          -46 -34 -36 -52 -42 vvcurveto
          -85 callsubr
          40 36 59 82 27 hvcurveto
          92 30 62 60 30 148 rrcurveto
          endchar
        </CharString>
        <CharString name="Uring">
          -14 callgsubr
          58 22 120 22 hstem
          82 30 204 102 callsubr
          -103 callgsubr
          216 38 5 callsubr
        </CharString>
        <CharString name="Utilde">
          -14 callgsubr
          76 24 38 24 hstem
          82 30 -103 callgsubr
          115 58 -85 callgsubr
        </CharString>
        <CharString name="V">
          -65 0 38 622 -20 hstem
          84 444 vstem
          146 hmoveto
          34 hlineto
          348 660 -24 callgsubr
          -210 -400 -38 -70 -40 -80 -36 -72 rlinecurve
          -4 hlineto
          -6 74 -8 76 -8 72 -36 400 rcurveline
          -28 hlineto
          endchar
        </CharString>
        <CharString name="W">
          52 callgsubr
          hstem
          109 27 305 28 vstem
          -89 callsubr
          endchar
        </CharString>
        <CharString name="Wacute">
          52 callgsubr
          hstem
          109 27 305 28 vstem
          -89 callsubr
          306 50 -39 callgsubr
        </CharString>
        <CharString name="Wcircumflex">
          52 callgsubr
          126 26 hstem
          109 27 305 28 vstem
          -89 callsubr
          232 50 -80 callgsubr
          endchar
        </CharString>
        <CharString name="Wdieresis">
          52 callgsubr
          66 64 hstemhm
          109 27 216 58 31 28 29 58 hintmask 11111100
          -89 callsubr
          270 66 -2 callsubr
          hintmask 11111110
          146 hmoveto
          16 16 16 20 18 -10 10 -16 -16 -16 -16 -22 -16 100 callgsubr
        </CharString>
        <CharString name="Wgrave">
          52 callgsubr
          hstem
          109 27 305 28 vstem
          -89 callsubr
          342 50 2 callgsubr
        </CharString>
        <CharString name="X">
          -69 84 callsubr
          -36 536 vstem
          -36 hmoveto
          32 hlineto
          158 212 24 32 28 40 28 34 rlinecurve
          2 hlineto
          12 -34 12 -34 12 -32 78 -218 rcurveline
          30 hlineto
          -124 338 244 322 rlineto
          -32 hlineto
          -152 -204 -22 -30 -24 -32 -24 -28 rlinecurve
          -2 hlineto
          -12 30 -7 24 -11 30 -74 210 rcurveline
          -30 hlineto
          114 -316 rlineto
          endchar
        </CharString>
        <CharString name="Y">
          -93 84 callsubr
          86 412 -91 callsubr
          endchar
        </CharString>
        <CharString name="Yacute">
          -93 84 callsubr
          86 412 -91 callsubr
          63 437 -39 callgsubr
        </CharString>
        <CharString name="Ycircumflex">
          86 callgsubr
          146 26 hstem
          86 412 -91 callsubr
          -11 437 -80 callgsubr
          endchar
        </CharString>
        <CharString name="Ydieresis">
          86 callgsubr
          86 64 hstem
          196 58 88 58 -91 callsubr
          27 453 rmoveto
          -102 callgsubr
        </CharString>
        <CharString name="Ygrave">
          -93 84 callsubr
          86 412 -91 callsubr
          99 437 2 callgsubr
        </CharString>
        <CharString name="Z">
          92 callgsubr
          2 526 vstem
          -52 callgsubr
          endchar
        </CharString>
        <CharString name="Zacute">
          -13 22 callsubr
          -26 178 hstemhm
          2 526 hintmask 11010000
          -52 callgsubr
          304 692 -32 callgsubr
          hintmask 10110000
          120 102 rlineto
          -38 hlineto
          endchar
        </CharString>
        <CharString name="Zcaron">
          -13 22 callsubr
          -26 178 -102 26 hstemhm
          2 526 hintmask 11001000
          -52 callgsubr
          hintmask 10101000
          460 794 28 callsubr
        </CharString>
        <CharString name="Zdotaccent">
          92 callgsubr
          318 64 vstem
          -52 callgsubr
          340 708 -105 callsubr
        </CharString>
        <CharString name="a">
          -71 callgsubr
          hstemhm
          46 28 hintmask 10101000
          -88 callsubr
          hintmask 01011000
          -74 callgsubr
          hintmask 10101000
          -107 callsubr
          endchar
        </CharString>
        <CharString name="a.a">
          -72 callsubr
          46 callsubr
          hintmask 10111100
          -84 callgsubr
          hintmask 01111100
          -103 callsubr
          hintmask 10111100
          -101 callsubr
          endchar
        </CharString>
        <CharString name="a.supa">
          -48 callgsubr
        </CharString>
        <CharString name="a.sups">
          -29 callsubr
        </CharString>
        <CharString name="aacute">
          -71 callgsubr
          hstemhm
          46 28 hintmask 10101000
          -88 callsubr
          hintmask 01011000
          -74 callgsubr
          hintmask 10101000
          -107 callsubr
          82 556 -60 callgsubr
        </CharString>
        <CharString name="aacute.a">
          -72 callsubr
          46 callsubr
          hintmask 10111100
          -84 callgsubr
          hintmask 01111100
          -103 callsubr
          hintmask 10111100
          -101 callsubr
          -126 302 -60 callgsubr
        </CharString>
        <CharString name="abreve">
          -71 callgsubr
          118 24 hstemhm
          46 28 164 22 hintmask 10101110
          -88 callsubr
          hintmask 01011110
          -74 callgsubr
          hintmask 10101110
          -7 callgsubr
          17 callgsubr
          endchar
        </CharString>
        <CharString name="abreve.a">
          -72 callsubr
          86 24 hstemhm
          40 28 148 22 148 28 hintmask 10111111
          -84 callgsubr
          hintmask 01111111
          -103 callsubr
          hintmask 10111111
          -101 callsubr
          -72 308 -100 callsubr
          endchar
        </CharString>
        <CharString name="acircumflex">
          -71 callgsubr
          212 34 hstemhm
          46 28 hintmask 10100100
          -88 callsubr
          hintmask 01010100
          -74 callgsubr
          hintmask 10100100
          -107 callsubr
          hintmask 10101100
          30 556 -79 callsubr
        </CharString>
        <CharString name="acircumflex.a">
          -72 callsubr
          180 34 46 callsubr
          hintmask 10110110
          -84 callgsubr
          hintmask 01110110
          -103 callsubr
          hintmask 10110110
          8 callsubr
          37 callgsubr
          endchar
        </CharString>
        <CharString name="acute">
          -11 80 callsubr
          274 154 vstem
          274 570 -60 callgsubr
        </CharString>
        <CharString name="adieresis">
          -71 callgsubr
          144 64 hstemhm
          46 28 160 58 88 58 hintmask 10100100
          -88 callsubr
          hintmask 01010100
          -74 callgsubr
          hintmask 10100100
          -47 callsubr
          72 588 rmoveto
          -102 callgsubr
        </CharString>
        <CharString name="adieresis.a">
          -72 callsubr
          112 64 hstemhm
          40 28 144 58 88 58 -30 28 hintmask 1011010010000000
          -84 callgsubr
          hintmask 0111010010000000
          -103 callsubr
          hintmask 1011010010000000
          -101 callsubr
          hintmask 1011111100000000
          -136 334 rmoveto
          -102 callgsubr
        </CharString>
        <CharString name="ae">
          251 -12 26 228 26 0 30 callgsubr
          hstemhm
          40 28 294 22 -6 28 296 28 hintmask 10111101
          40 102 rmoveto
          -76 56 -38 62 72 72 40 68 68 vhcurveto
          -62 20 60 -46 70 hhcurveto
          54 50 24 28 38 hvcurveto
          -14 22 rlineto
          -26 -36 -44 -22 -46 hhcurveto
          hintmask 11011101
          -100 -58 96 132 26 hvcurveto
          328 hlineto
          6 20 6 28 32 vvcurveto
          98 -40 70 -102 vhcurveto
          hintmask 10111011
          -68 -68 -46 -72 -46 hvcurveto
          80 -4 -48 38 -72 hhcurveto
          -54 -60 -24 -26 -44 hvcurveto
          12 -24 rlineto
          28 46 52 20 46 hhcurveto
          72 26 -40 -68 -20 -2 -16 -6 -26 hvcurveto
          hintmask 10111101
          -200 -8 -130 -52 -132 vvcurveto
          hintmask 11011101
          356 166 rmoveto
          114 26 86 82 78 hhcurveto
          86 30 -68 -68 -22 -2 -18 -4 -20 hvcurveto
          hintmask 10111101
          -330 hmoveto
          -10 -54 -2 -36 8 -56 rrcurveto
          -74 -72 -74 -34 -52 hhcurveto
          -54 -42 32 62 106 120 50 178 4 hvcurveto
          endchar
        </CharString>
        <CharString name="agrave">
          -71 callgsubr
          hstemhm
          46 28 hintmask 10101000
          -88 callsubr
          hintmask 01011000
          -74 callgsubr
          hintmask 10101000
          -107 callsubr
          158 556 -28 callsubr
        </CharString>
        <CharString name="agrave.a">
          -72 callsubr
          46 callsubr
          hintmask 10111100
          -84 callgsubr
          hintmask 01111100
          -103 callsubr
          hintmask 10111100
          -101 callsubr
          -50 302 -28 callsubr
        </CharString>
        <CharString name="amacron">
          -71 callgsubr
          150 26 hstemhm
          46 28 hintmask 10101100
          -88 callsubr
          hintmask 01011100
          -74 callgsubr
          hintmask 10101100
          -107 callsubr
          36 594 -83 callgsubr
        </CharString>
        <CharString name="amacron.a">
          -72 callsubr
          118 26 46 callsubr
          hintmask 10111110
          -84 callgsubr
          hintmask 01111110
          -103 callsubr
          hintmask 10111110
          -101 callsubr
          -172 340 -83 callgsubr
        </CharString>
        <CharString name="ampersand">
          27 47 callgsubr
          hstem
          16 30 130 28 182 28 vstem
          46 140 rmoveto
          89 73 57 81 55 vhcurveto
          28 -92 52 -91 56 -66 rrcurveto
          -45 -50 -58 -33 -58 hhcurveto
          -71 -53 50 76 hvcurveto
          158 346 rmoveto
          91 51 69 71 43 17 -34 -35 -86 -82 -54 -86 -55 vhcurveto
          -9 35 -5 36 33 vvcurveto
          302 -145 rmoveto
          -42 -89 -45 -77 -62 -63 -57 65 -49 90 -27 90 rrcurveto
          94 62 96 61 104 vvcurveto
          46 -26 42 -60 -78 -74 -75 -115 -37 6 -40 11 -40 vhcurveto
          -90 -58 -87 -64 -109 vvcurveto
          -90 63 -56 84 70 64 33 52 56 vhcurveto
          38 -42 39 -28 34 -15 14 24 rcurveline
          -34 15 -34 29 -36 38 63 67 53 87 44 93 rrcurveto
          endchar
        </CharString>
        <CharString name="aogonek">
          9 70 callsubr
          450 26 -12 -20 hstemhm
          46 28 164 30 hintmask 11101100
          46 160 rmoveto
          -112 56 -60 84 68 64 40 52 50 vhcurveto
          2 hlineto
          -10 -70 rlineto
          -66 -34 -56 -60 -56 -36 callsubr
          44 48 70 40 hvcurveto
          hintmask 11011100
          -26 callgsubr
          -24 hlineto
          hintmask 11101100
          -18 -70 rlineto
          -2 hlineto
          48 -26 -44 34 -77 callgsubr
          hvcurveto
          142 -146 rmoveto
          -70 -44 50 102 148 110 150 120 48 40 -24 -66 38 hvcurveto
          -52 -252 rlineto
          -68 -60 -74 -40 -56 hhcurveto
          endchar
        </CharString>
        <CharString name="aogonek.a">
          -41 70 callsubr
          254 30 callgsubr
          hstem
          40 28 136 30 152 28 vstem
          326 10 rmoveto
          -66 -34 -56 -60 -56 -36 callsubr
          44 48 70 40 hvcurveto
          58 296 rlineto
          4 16 4 28 18 vvcurveto
          98 -50 34 -82 -54 -60 -24 -26 -44 vhcurveto
          12 -24 rlineto
          28 46 52 20 46 hhcurveto
          74 32 -28 -80 -20 -2 -16 -6 -26 hvcurveto
          -208 -6 -130 -54 -132 vvcurveto
          -76 56 -38 62 58 66 32 42 48 vhcurveto
          2 hlineto
          -6 -52 rlineto
          48 258 rmoveto
          -34 -168 rlineto
          -58 -66 -58 -28 -52 hhcurveto
          -54 -42 28 66 106 120 50 186 4 hvcurveto
          endchar
        </CharString>
        <CharString name="approxequal">
          -59 172 26 66 26 80 26 66 26 hstem
          50 374 vstem
          72 398 -18 callgsubr
          22 -210 -18 callgsubr
          endchar
        </CharString>
        <CharString name="aring">
          -71 callgsubr
          76 22 126 22 hstemhm
          46 28 180 102 callsubr
          hintmask 1010111110000000
          -88 callsubr
          hintmask 0101111110000000
          -74 callgsubr
          hintmask 1010111110000000
          -7 callgsubr
          520 -68 callsubr
        </CharString>
        <CharString name="aring.a">
          -72 callsubr
          44 22 126 22 hstemhm
          40 28 164 102 callsubr
          -2 28 hintmask 1011111101000000
          -84 callgsubr
          hintmask 0111111101000000
          -103 callsubr
          hintmask 1011111101000000
          -101 callsubr
          hintmask 1011111110000000
          -72 266 -68 callsubr
        </CharString>
        <CharString name="arrowdown">
          79 -26 552 hstem
          284 26 vstem
          300 -26 rmoveto
          262 258 -18 18 -234 -232 rlineto
          508 -26 -508 vlineto
          -234 232 -18 -18 262 -258 rlineto
          endchar
        </CharString>
        <CharString name="arrowup">
          79 -26 552 hstem
          284 26 vstem
          294 526 rmoveto
          -262 -258 18 -18 234 232 rlineto
          -508 26 508 vlineto
          234 -232 18 18 -262 258 rlineto
          endchar
        </CharString>
        <CharString name="asciicircum">
          -57 634 36 hstem
          92 312 vstem
          92 290 59 callgsubr
          212 48 132 rlineto
          2 hlineto
          48 -132 80 -212 rlineto
          26 hlineto
          -144 380 -19 callgsubr
          endchar
        </CharString>
        <CharString name="asciitilde">
          -59 272 26 66 26 hstem
          50 374 vstem
          72 300 -18 callgsubr
          endchar
        </CharString>
        <CharString name="asterisk">
          -141 476 236 hstem
          144 232 vstem
          178 488 rmoveto
          74 72 46 -84 20 12 -38 90 96 26 -4 22 -94 -14 8 98 -22 2 -20 -98 -92 32 -8 -20 82 -44 -64 -80 rlineto
          endchar
        </CharString>
        <CharString name="at">
          257 -142 30 callgsubr
          -18 26 306 26 180 26 hstemhm
          46 28 164 28 198 24 218 28 hintmask 1101111110000000
          552 80 rmoveto
          -60 -14 52 68 16 hvcurveto
          48 212 -19 callgsubr
          -12 -44 rlineto
          -2 hlineto
          32 -18 -26 20 -32 hhcurveto
          -106 -84 -118 -112 hvcurveto
          hintmask 1011111110000000
          -86 54 -42 54 46 36 30 87 callsubr
          -32 48 hhcurveto
          92 94 104 182 170 -98 116 -174 -210 -206 -196 -266 -188 118 -118 166 65 callgsubr
          -152 -106 108 178 244 192 186 194 160 86 -106 -160 -160 -80 -94 -74 hvcurveto
          hintmask 1011111110000000
          -286 116 rmoveto
          88 66 110 94 24 24 -12 -44 24 vhcurveto
          -40 -178 rlineto
          -48 -36 -38 -24 -36 hhcurveto
          -44 -38 34 74 hvcurveto
          endchar
        </CharString>
        <CharString name="at.case">
          261 -12 26 142 26 -18 26 282 26 152 26 hstemhm
          108 28 150 28 188 24 193 28 hintmask 1101111110000000
          590 182 rmoveto
          -60 -14 50 68 16 hvcurveto
          44 192 -19 callgsubr
          -12 -44 rlineto
          -2 hlineto
          32 -18 -26 18 -32 hhcurveto
          -100 -76 -106 -102 hvcurveto
          hintmask 1011111110000000
          -86 50 -40 48 46 36 28 87 callsubr
          -30 48 hhcurveto
          82 79 94 170 152 -93 104 -162 -200 -184 -180 -248 -158 106 -102 154 65 callgsubr
          -140 -94 92 148 226 170 170 184 146 83 -94 -142 -148 -65 -84 -64 hvcurveto
          hintmask 1011111110000000
          -276 114 rmoveto
          80 58 96 88 24 24 -10 -44 24 vhcurveto
          -36 -158 rlineto
          -48 -36 -38 -22 -36 hhcurveto
          -38 -34 32 74 hvcurveto
          endchar
        </CharString>
        <CharString name="atilde">
          -71 callgsubr
          122 24 36 24 hstemhm
          46 28 hintmask 10101110
          -88 callsubr
          hintmask 01011110
          -74 callgsubr
          hintmask 10101110
          -107 callsubr
          42 568 -92 callgsubr
        </CharString>
        <CharString name="atilde.a">
          -72 callsubr
          90 24 36 24 46 callsubr
          hintmask 10111111
          -84 callgsubr
          hintmask 01111111
          -103 callsubr
          hintmask 10111111
          -101 callsubr
          -166 314 -92 callgsubr
        </CharString>
        <CharString name="b">
          7 -12 77 callsubr
          hintmask 01111000
          68 hmoveto
          hintmask 10111000
          6 callgsubr
          hintmask 01111000
          64 callsubr
          hintmask 10111000
          35 callsubr
          26 66 -38 vhcurveto
          54 266 rlineto
          hintmask 01111000
          84 callgsubr
          endchar
        </CharString>
        <CharString name="b.sups">
          -163 14 callgsubr
          332 26 vstem
          86 270 rmoveto
          12 42 -24 callsubr
          -36 18 30 -14 32 hhcurveto
          90 86 96 120 76 -38 40 -56 -46 -36 -20 -28 -34 hvcurveto
          -2 hlineto
          14 66 26 132 rlineto
          -26 hlineto
          -94 -474 rlineto
          196 300 24 callsubr
        </CharString>
        <CharString name="backslash">
          -165 -160 870 hstem
          90 172 vstem
          238 -160 rmoveto
          24 hlineto
          -148 870 -19 callgsubr
          endchar
        </CharString>
        <CharString name="bar">
          89 callgsubr
          -250 rmoveto
          26 1000 -26 hlineto
          endchar
        </CharString>
        <CharString name="braceleft">
          -255 -152 22 396 24 396 22 hstem
          48 24 34 22 vstem
          48 -78 rmoveto
          -54 26 -20 56 vhcurveto
          30 hlineto
          6 22 -24 callgsubr
          -50 -14 20 38 hvcurveto
          68 56 152 72 vvcurveto
          20 -6 22 -28 12 vhcurveto
          4 vlineto
          42 12 18 36 12 56 12 64 8 70 12 60 rrcurveto
          72 14 22 38 62 hhcurveto
          32 hlineto
          4 22 rlineto
          -32 hlineto
          -72 -32 -28 -100 -20 hvcurveto
          -14 -68 -10 -76 -12 -64 rrcurveto
          -40 -8 -20 -42 -70 hhcurveto
          -6 -24 rlineto
          60 10 -28 -26 hvcurveto
          -66 -58 -154 -70 vvcurveto
          endchar
        </CharString>
        <CharString name="braceright">
          94 callgsubr
          396 24 396 22 hstem
          140 22 34 24 vstem
          220 634 rmoveto
          52 -26 22 -56 vhcurveto
          -30 hlineto
          -6 -22 rlineto
          30 hlineto
          50 14 -20 -40 hvcurveto
          -68 -56 -152 -70 vvcurveto
          -20 4 -22 30 -12 vhcurveto
          -4 vlineto
          -42 -12 -18 -36 -12 -58 -12 -64 -8 -70 -12 -60 rrcurveto
          -72 -14 -22 -36 -62 hhcurveto
          -32 hlineto
          -4 -22 rlineto
          32 hlineto
          70 34 26 100 20 hvcurveto
          14 68 10 78 12 64 rrcurveto
          40 8 20 42 70 hhcurveto
          6 24 rlineto
          -60 -10 28 24 hvcurveto
          66 58 156 70 vvcurveto
          endchar
        </CharString>
        <CharString name="bracketleft">
          94 callgsubr
          816 22 hstem
          18 316 vstem
          46 -130 rmoveto
          162 816 rlineto
          124 hlineto
          2 22 rlineto
          -144 hlineto
          -172 -860 rlineto
          144 hlineto
          6 22 rlineto
          endchar
        </CharString>
        <CharString name="bracketright">
          94 callgsubr
          816 22 hstem
          -64 318 vstem
          -60 -130 rmoveto
          -4 -22 rlineto
          146 hlineto
          172 860 rlineto
          -146 hlineto
          -4 -22 rlineto
          124 hlineto
          -166 -816 rlineto
          endchar
        </CharString>
        <CharString name="breve">
          -11 576 24 hstem
          242 22 vstem
          328 576 -100 callsubr
          endchar
        </CharString>
        <CharString name="brokenbar">
          89 callgsubr
          274 rmoveto
          26 476 -26 hlineto
          -530 vmoveto
          -470 26 470 vlineto
          endchar
        </CharString>
        <CharString name="bullet">
          -249 160 210 hstem
          42 188 vstem
          126 160 rmoveto
          64 40 58 60 54 -36 38 -46 -66 -40 -60 -58 -54 36 -38 48 hvcurveto
          endchar
        </CharString>
        <CharString name="c">
          -87 -19 callsubr
          hstem
          44 28 -81 callgsubr
          endchar
        </CharString>
        <CharString name="c.sups">
          -227 19 callgsubr
          64 388 rmoveto
          -78 48 -48 70 40 32 16 16 22 vhcurveto
          -12 20 rlineto
          -14 -22 -28 -14 -30 hhcurveto
          -52 -42 36 70 76 60 102 82 30 20 -10 -22 20 hvcurveto
          18 18 rlineto
          24 -22 -26 14 -36 hhcurveto
          -102 -70 -110 -96 hvcurveto
          endchar
        </CharString>
        <CharString name="cacute">
          -87 -19 callsubr
          hstem
          44 28 -81 callgsubr
          214 394 -60 callgsubr
        </CharString>
        <CharString name="caron">
          -11 570 34 hstem
          250 208 vstem
          458 704 -84 callsubr
        </CharString>
        <CharString name="ccaron">
          -87 -19 callsubr
          80 34 hstem
          44 28 -81 callgsubr
          398 528 -84 callsubr
        </CharString>
        <CharString name="ccedilla">
          -87 -12 26 -24 24 450 26 hstemhm
          44 28 124 26 hintmask 10111000
          138 -74 rmoveto
          -71 callsubr
          34 48 rlineto
          66 48 30 26 34 hvcurveto
          -16 22 rlineto
          -28 -36 -44 -24 -50 hhcurveto
          -94 -46 58 110 152 112 130 112 46 26 -16 -36 30 hvcurveto
          20 20 rlineto
          36 -32 -34 22 -54 hhcurveto
          -124 -130 -126 -188 hvcurveto
          hintmask 01111000
          -109 53 -66 86 -11 vhcurveto
          endchar
        </CharString>
        <CharString name="ccircumflex">
          -87 -19 callsubr
          180 34 hstem
          44 28 -81 callgsubr
          162 394 -79 callsubr
        </CharString>
        <CharString name="cdotaccent">
          -87 -19 callsubr
          hstem
          44 28 218 64 -81 callgsubr
          274 424 -105 callsubr
        </CharString>
        <CharString name="cedilla">
          -11 -208 210 hstem
          206 26 vstem
          148 -74 rmoveto
          -71 callsubr
          44 62 -10 callsubr
          endchar
        </CharString>
        <CharString name="cent">
          -59 11 -21 112 26 403 26 -25 134 hstemhm
          82 30 hintmask 11101000
          224 129 rmoveto
          -75 10 -37 62 93 vvcurveto
          138 103 93 88 7 vhcurveto
          hintmask 11011000
          55 134 rmoveto
          -28 hlineto
          -21 -108 rlineto
          -107 -5 -120 -101 -164 vvcurveto
          -109 52 -65 85 -10 vhcurveto
          -23 -114 rlineto
          28 hlineto
          22 112 71 1 43 29 38 24 rlinecurve
          -14 24 -35 -25 -44 -25 -54 -2 rlinecurve
          hintmask 11101000
          80 403 43 -4 24 -19 28 -34 rlinecurve
          20 20 -25 30 -34 27 -51 6 rlinecurve
          endchar
        </CharString>
        <CharString name="circumflex">
          -11 670 34 hstem
          222 208 vstem
          222 570 -79 callsubr
        </CharString>
        <CharString name="colon">
          -313 -12 474 -76 76 hstemhm
          22 68 2 68 hintmask 01010000
          120 386 -50 callsubr
          hintmask 10100000
          -70 -398 -50 callsubr
          endchar
        </CharString>
        <CharString name="colonmonetary">
          -59 -12 26 -2 -21 635 26 hstemhm
          66 28 hintmask 10110000
          212 17 rmoveto
          -24 5 -20 11 -16 16 179 577 rcurveline
          4 3 0 4 hhcurveto
          22 18 -5 -8 15 hvcurveto
          -264 -541 rmoveto
          -25 37 -14 54 65 vvcurveto
          210 98 154 112 29 vhcurveto
          162 129 rmoveto
          -26 hlineto
          -35 -111 rlineto
          8 -17 -20 5 -24 -2 -1 0 -2 hhcurveto
          31 98 rlineto
          -26 hlineto
          -31 -101 rlineto
          -132 -23 -115 -169 -235 vvcurveto
          -78 20 -64 36 -41 vhcurveto
          -46 -149 rlineto
          26 hlineto
          hintmask 01110000
          40 130 18 -14 21 -10 23 -5 rlinecurve
          hintmask 10110000
          -32 -101 rlineto
          26 hlineto
          31 98 rlineto
          3 3 0 3 65 callsubr
          -1 -1 0 -1 hhcurveto
          181 583 15 -15 12 -19 11 -21 rlinecurve
          24 14 -13 26 -16 25 -24 18 rlinecurve
          endchar
        </CharString>
        <CharString name="comma">
          -313 -8 72 hstem
          62 36 vstem
          -26 -146 rmoveto
          17 callsubr
          endchar
        </CharString>
        <CharString name="comma.dnom">
          -369 -2 62 hstem
          32 32 vstem
          -24 -104 -37 callgsubr
        </CharString>
        <CharString name="comma.numr">
          -369 268 62 hstem
          82 32 vstem
          26 166 -37 callgsubr
        </CharString>
        <CharString name="comma.subs">
          -369 -172 62 hstem
          2 32 vstem
          -54 -274 -37 callgsubr
        </CharString>
        <CharString name="comma.sups">
          -369 438 62 hstem
          122 32 vstem
          66 336 -37 callgsubr
        </CharString>
        <CharString name="copyright">
          145 -12 24 112 26 334 26 118 24 hstem
          40 26 118 28 414 26 vstem
          184 272 rmoveto
          -100 58 -48 80 58 36 24 28 40 vhcurveto
          -14 22 rlineto
          -24 -36 -36 -24 -46 hhcurveto
          -68 -44 42 86 120 92 86 76 36 20 -16 -26 20 hvcurveto
          20 18 rlineto
          30 -22 -24 20 -48 hhcurveto
          -90 -108 -90 -148 hvcurveto
          114 -284 -15 callgsubr
        </CharString>
        <CharString name="currency">
          -59 146 26 320 26 hstem
          76 28 272 28 vstem
          384 128 rmoveto
          20 16 -56 74 rlineto
          34 40 22 54 58 vvcurveto
          30 -5 27 -10 21 vhcurveto
          77 68 -16 20 -74 -65 rlineto
          30 -23 -34 17 -43 hhcurveto
          -44 -41 -18 -29 -34 hvcurveto
          -47 63 -20 -16 48 -65 rlineto
          -38 -41 -24 -57 -61 vvcurveto
          -30 5 -25 8 -21 vhcurveto
          -75 -66 16 -20 72 63 rlineto
          -32 22 35 -17 45 hhcurveto
          46 45 20 33 35 hvcurveto
          -56 293 rmoveto
          66 36 -45 -83 -108 -87 -84 -83 -66 -36 45 83 108 87 84 83 hvcurveto
          endchar
        </CharString>
        <CharString name="d">
          11 -12 21 callsubr
          -44 callgsubr
          hintmask 10111000
          -36 callgsubr
          endchar
        </CharString>
        <CharString name="d.sups">
          -163 19 callgsubr
          324 544 rmoveto
          -4 hlineto
          36 -18 -30 14 -32 hhcurveto
          -90 -86 -96 -120 -76 38 -40 56 46 40 24 36 34 hvcurveto
          4 hlineto
          -10 -52 rlineto
          22 hlineto
          92 468 rlineto
          -26 hlineto
          -26 -130 rlineto
          -174 -322 -23 callsubr
        </CharString>
        <CharString name="dagger">
          -123 535 28 hstem
          114 280 vstem
          114 -80 rmoveto
          30 hlineto
          122 616 31 callsubr
          rlineto
          endchar
        </CharString>
        <CharString name="daggerdbl">
          -123 69 28 438 28 hstem
          24 370 vstem
          24 68 rmoveto
          122 2 -30 -150 rlineto
          30 hlineto
          28 150 122 -2 6 30 -124 -2 46 220 42 220 31 callsubr
          -46 -220 -42 -220 -122 2 rlineto
          endchar
        </CharString>
        <CharString name="dcaron">
          5 -12 21 callsubr
          -44 callgsubr
          hintmask 10111000
          -36 callgsubr
          382 534 -13 callsubr
        </CharString>
        <CharString name="dcroat">
          7 -37 callsubr
          444 26 114 26 112 -20 hstemhm
          46 28 hintmask 10111100
          378 122 rmoveto
          -68 -60 -64 -40 -66 hhcurveto
          -70 -44 50 102 130 108 148 120 48 40 -26 -66 36 hvcurveto
          154 258 rmoveto
          -75 hlineto
          23 112 -10 callsubr
          -23 -112 rlineto
          -165 hlineto
          -6 -26 rlineto
          166 hlineto
          -20 -98 -20 -96 rlineto
          -4 hlineto
          48 -24 -42 32 -58 hhcurveto
          -132 -126 -146 -164 -73 callgsubr
          hvcurveto
          4 hlineto
          hintmask 01111100
          93 callsubr
          118 584 74 4 rlineto
          endchar
        </CharString>
        <CharString name="degree">
          -231 456 24 180 24 hstem
          106 26 154 26 vstem
          198 456 rmoveto
          64 50 60 70 58 -40 40 -52 -64 -50 -60 -70 -58 40 -40 52 hvcurveto
          20 204 rmoveto
          42 26 -34 -44 -50 -34 -52 -52 -42 -26 34 44 50 34 52 52 hvcurveto
          endchar
        </CharString>
        <CharString name="dieresis">
          -11 602 64 hstem
          238 58 88 58 vstem
          264 602 rmoveto
          -102 callgsubr
        </CharString>
        <CharString name="divide">
          -59 114 66 138 26 134 66 hstem
          212 60 vstem
          242 478 rmoveto
          60 callgsubr
          -364 vmoveto
          60 callgsubr
          194 204 rmoveto
          72 callgsubr
          endchar
        </CharString>
        <CharString name="dollar">
          -59 -10 24 612 124 hstem
          128 28 194 28 vstem
          343 750 rmoveto
          -28 hlineto
          -20 -98 rlineto
          -96 -1 -71 -67 -92 -154 222 -2 -172 vvcurveto
          -88 -68 -62 -88 -66 -52 42 42 -30 vhcurveto
          -21 -20 29 -37 51 -41 63 -10 rlinecurve
          -20 -100 rlineto
          28 hlineto
          19 98 rlineto
          110 1 73 81 100 182 -222 2 144 vvcurveto
          76 60 52 78 52 42 -34 -42 28 vhcurveto
          22 18 -24 37 -44 35 -48 9 rlinecurve
          endchar
        </CharString>
        <CharString name="dong">
          -59 0 26 80 26 316 24 94 26 hstem
          78 28 vstem
          36 hmoveto
          314 -86 callsubr
          -314 hlineto
          292 174 rmoveto
          -44 -52 -44 -24 -46 hhcurveto
          -58 -28 44 64 114 92 94 86 34 32 -20 -42 20 hvcurveto
          150 206 rmoveto
          -79 hlineto
          17 84 -10 callsubr
          -18 -84 rlineto
          -130 hlineto
          -6 -26 rlineto
          131 hlineto
          -11 -52 -18 -98 rlineto
          30 -20 -24 26 -48 hhcurveto
          -104 -104 -102 -136 -74 42 -54 70 48 50 28 32 38 hvcurveto
          2 hlineto
          -8 -50 -58 callgsubr
          92 450 78 4 rlineto
          endchar
        </CharString>
        <CharString name="dotaccent">
          -11 600 68 hstem
          306 64 vstem
          334 600 -105 callsubr
        </CharString>
        <CharString name="dotlessi">
          1 callgsubr
          hstem
          44 124 -42 callgsubr
          endchar
        </CharString>
        <CharString name="e">
          -35 callsubr
          hstem
          44 28 332 28 vstem
          -107 callgsubr
          endchar
        </CharString>
        <CharString name="e.sups">
          -199 262 87 callgsubr
          120 24 hstem
          64 27 213 26 vstem
          64 394 -55 callsubr
        </CharString>
        <CharString name="eacute">
          -35 callsubr
          hstem
          44 28 332 28 vstem
          -107 callgsubr
          -148 302 -60 callgsubr
        </CharString>
        <CharString name="eacute.sups">
          48 callsubr
          200 646 rmoveto
          26 hlineto
          86 90 rlineto
          -34 hlineto
          -212 -332 -55 callsubr
        </CharString>
        <CharString name="ebreve">
          -35 callsubr
          86 24 hstem
          44 28 146 22 164 28 vstem
          -107 callgsubr
          -94 308 -100 callsubr
          endchar
        </CharString>
        <CharString name="ecaron">
          -35 callsubr
          80 34 hstem
          44 28 332 28 vstem
          -107 callgsubr
          36 436 -84 callsubr
        </CharString>
        <CharString name="ecircumflex">
          -35 callsubr
          180 34 hstem
          44 28 332 28 vstem
          -107 callgsubr
          -200 43 callgsubr
          endchar
        </CharString>
        <CharString name="edieresis">
          -35 callsubr
          112 64 hstemhm
          44 28 142 58 88 58 -14 28 hintmask 11111101
          -107 callgsubr
          -158 334 -2 callsubr
          hintmask 11111110
          146 hmoveto
          16 16 16 20 18 -10 10 -16 -16 -16 -16 -22 -16 100 callgsubr
        </CharString>
        <CharString name="edotaccent">
          -35 callsubr
          hstem
          44 28 210 64 58 28 vstem
          -107 callgsubr
          -88 332 -105 callsubr
        </CharString>
        <CharString name="egrave">
          -35 callsubr
          hstem
          44 28 332 28 vstem
          -107 callgsubr
          -72 302 -28 callsubr
        </CharString>
        <CharString name="egrave.sups">
          48 callsubr
          246 646 rmoveto
          22 hlineto
          -40 90 -24 callgsubr
          -132 -332 -55 callsubr
        </CharString>
        <CharString name="eight">
          -92 callsubr
        </CharString>
        <CharString name="eight.dnom">
          -169 -12 101 callsubr
          hstemhm
          18 9 callgsubr
          hintmask 11101000
          46 96 -87 callgsubr
        </CharString>
        <CharString name="eight.numr">
          -169 258 101 callsubr
          hstemhm
          68 9 callgsubr
          hintmask 11101000
          96 366 -87 callgsubr
        </CharString>
        <CharString name="eight.onum">
          -92 callsubr
        </CharString>
        <CharString name="eight.pnum">
          -92 callsubr
        </CharString>
        <CharString name="eight.subs">
          -169 -182 101 callsubr
          hstemhm
          -12 9 callgsubr
          hintmask 11101000
          16 -74 -87 callgsubr
        </CharString>
        <CharString name="eight.sups">
          -169 428 101 callsubr
          hstemhm
          108 9 callgsubr
          hintmask 11101000
          136 536 -87 callgsubr
        </CharString>
        <CharString name="eight.tnum">
          -92 callsubr
        </CharString>
        <CharString name="ellipsis">
          431 -12 76 hstem
          94 68 268 68 268 68 vstem
          122 -12 -50 callsubr
          336 hmoveto
          -67 callgsubr
          336 hmoveto
          -67 callgsubr
          endchar
        </CharString>
        <CharString name="emacron">
          -35 callsubr
          118 26 hstem
          44 28 332 28 vstem
          -107 callgsubr
          -194 340 -83 callgsubr
        </CharString>
        <CharString name="emdash">
          32 callgsubr
        </CharString>
        <CharString name="endash">
          -53 238 26 hstem
          36 390 vstem
          36 238 rmoveto
          382 hlineto
          8 26 rlineto
          -384 hlineto
          endchar
        </CharString>
        <CharString name="eogonek">
          -47 70 callsubr
          228 26 196 26 hstem
          44 28 114 30 188 28 vstem
          186 -140 rmoveto
          -85 callsubr
          46 42 56 106 72 hvcurveto
          -54 callsubr
          -100 -77 68 160 29 hvcurveto
          342 hlineto
          6 20 6 28 32 vvcurveto
          98 -40 70 -102 -122 -124 -124 -182 -128 70 -68 110 12 18 2 4 16 vhcurveto
          -38 -30 -46 -52 -52 vvcurveto
          -102 408 rmoveto
          114 26 88 82 90 hhcurveto
          86 30 -68 -68 -22 -2 -18 -4 -20 hvcurveto
          endchar
        </CharString>
        <CharString name="equal">
          74 callsubr
          416 rmoveto
          72 callgsubr
          388 -198 rmoveto
          72 callgsubr
          endchar
        </CharString>
        <CharString name="estimated">
          285 -12 20 308 18 306 20 hstem
          66 130 450 128 vstem
          204 108 rmoveto
          -4 6 -4 6 8 vvcurveto
          184 vlineto
          2 2 2 2 vhcurveto
          574 hlineto
          2 0 4 2 vvcurveto
          186 -158 150 -196 -196 -158 -150 -186 -186 158 -150 196 114 102 52 80 66 vhcurveto
          -52 hlineto
          -68 -56 -82 -44 -90 hhcurveto
          -86 -78 38 62 -54 hvcurveto
          -4 226 rmoveto
          -2 -2 2 4 hvcurveto
          180 vlineto
          8 4 8 4 6 vhcurveto
          60 56 76 38 86 hhcurveto
          82 76 -36 -58 56 hvcurveto
          6 -6 4 -8 -8 vvcurveto
          -184 vlineto
          -4 -2 -2 -4 vhcurveto
          endchar
        </CharString>
        <CharString name="eth">
          -1 -12 26 400 26 282 -20 hstem
          50 28 342 28 vstem
          216 14 rmoveto
          -88 -50 72 82 124 82 122 122 63 43 -48 -49 32 hvcurveto
          -159 -6 -80 -144 -118 hhcurveto
          296 646 rmoveto
          -8 22 -146 -62 -33 40 -39 34 -44 28 rlinecurve
          -16 -20 41 -27 36 -30 30 -36 rlinecurve
          -143 -61 8 -22 149 64 43 -59 26 -74 4 -98 rlinecurve
          48 -36 -47 33 -53 hhcurveto
          -142 -92 -134 -142 -96 66 -80 94 142 96 156 196 110 -29 84 -47 66 hvcurveto
          endchar
        </CharString>
        <CharString name="exclam">
          -273 -12 76 -55 -21 684 -20 hstemhm
          42 68 hintmask 01110000
          92 172 rmoveto
          24 hlineto
          88 436 56 callgsubr
          -106 -620 rmoveto
          64 callgsubr
          hvcurveto
          hintmask 10110000
          18 -8 14 -18 -22 -20 -24 -22 vhcurveto
          hintmask 01110000
          -16 10 -14 18 vhcurveto
          endchar
        </CharString>
        <CharString name="exclamdown">
          -273 414 76 0 -20 hstemhm
          130 68 hintmask 01100000
          148 306 rmoveto
          -24 hlineto
          -88 -436 -12 -64 rlineto
          28 hlineto
          12 64 rlineto
          106 620 rmoveto
          -22 -18 -22 -22 hvcurveto
          hintmask 10100000
          -18 8 -14 18 22 20 24 22 vhcurveto
          hintmask 01100000
          16 -10 14 -18 vhcurveto
          endchar
        </CharString>
        <CharString name="f">
          -269 21 90 callsubr
          hstem
          48 314 vstem
          76 452 rmoveto
          62 hlineto
          -70 callsubr
          endchar
        </CharString>
        <CharString name="f.sups">
          -343 562 24 142 24 hstem
          66 218 vstem
          130 586 rmoveto
          -44 -2 -4 -22 rlineto
          43 hlineto
          -59 -292 rlineto
          26 hlineto
          58 292 rlineto
          76 hlineto
          4 24 rlineto
          -75 hlineto
          15 76 rlineto
          38 8 24 28 30 hhcurveto
          18 12 -6 -6 10 hvcurveto
          12 22 rlineto
          10 -18 -14 4 -18 hhcurveto
          -42 -36 -30 -64 -12 hvcurveto
          endchar
        </CharString>
        <CharString name="f_f">
          -23 21 -21 452 26 220 26 -16 26 hstemhm
          48 560 hintmask 11101000
          390 478 rmoveto
          -218 hlineto
          22 110 rlineto
          58 13 36 52 55 hhcurveto
          32 17 -8 -10 19 hvcurveto
          14 24 rlineto
          10 -23 -20 10 -37 hhcurveto
          -61 -51 -42 -94 -22 hvcurveto
          -22 -110 -64 -4 -4 -22 rlineto
          63 hlineto
          61 callgsubr
          218 hlineto
          61 callgsubr
          107 -86 callsubr
          -108 hlineto
          24 120 rlineto
          hintmask 11011000
          58 12 32 52 50 hhcurveto
          26 16 -8 -10 16 hvcurveto
          14 24 rlineto
          10 -20 -18 10 -32 hhcurveto
          -56 -48 -42 -94 -20 hvcurveto
          endchar
        </CharString>
        <CharString name="f_t">
          -25 -12 26 7 90 callsubr
          hstemhm
          274 28 hintmask 10111000
          374 452 rmoveto
          132 -86 callsubr
          -132 hlineto
          28 138 -19 callgsubr
          -32 -138 rlineto
          -180 hlineto
          24 120 rlineto
          58 12 32 52 50 hhcurveto
          26 16 -8 -10 16 hvcurveto
          14 24 rlineto
          10 -20 -18 10 -32 hhcurveto
          -56 -48 -42 -94 -20 hvcurveto
          -24 -120 -64 -4 -4 -22 rlineto
          63 hlineto
          hintmask 01111000
          61 callgsubr
          179 hlineto
          -68 -328 rlineto
          hintmask 10111000
          -3 -16 -1 -12 -18 vvcurveto
          -48 24 -42 72 28 26 12 10 18 vhcurveto
          100 callsubr
          -16 -20 -10 -24 hhcurveto
          -54 -16 24 46 14 2 12 2 12 hvcurveto
          endchar
        </CharString>
        <CharString name="fi">
          -55 21 90 callsubr
          hstem
          398 64 vstem
          76 452 rmoveto
          62 hlineto
          -70 callsubr
          210 -474 rmoveto
          28 hlineto
          96 92 callsubr
          40 -5 callgsubr
          endchar
        </CharString>
        <CharString name="figuredash">
          -59 238 26 hstem
          36 384 vstem
          36 238 rmoveto
          376 hlineto
          8 26 rlineto
          -378 hlineto
          endchar
        </CharString>
        <CharString name="five">
          -59 -12 26 360 26 214 26 hstem
          370 28 vstem
          -2 92 rmoveto
          -46 26 52 -58 94 hhcurveto
          122 106 96 148 112 -70 56 -39 callsubr
          -48 -100 -126 -92 -86 -102 -92 -38 52 42 -26 hvcurveto
          endchar
        </CharString>
        <CharString name="five.dnom">
          -171 -12 55 callgsubr
          246 28 vstem
          2 68 -78 callgsubr
          endchar
        </CharString>
        <CharString name="five.numr">
          -171 258 55 callgsubr
          296 28 vstem
          52 338 -78 callgsubr
          endchar
        </CharString>
        <CharString name="five.onum">
          -27 callgsubr
        </CharString>
        <CharString name="five.pnum">
          -77 -12 26 360 26 214 26 hstem
          366 28 vstem
          -6 92 rmoveto
          -46 26 52 -58 94 hhcurveto
          122 106 96 148 112 -70 56 -39 callsubr
          -48 -100 -126 -92 -86 -102 -92 -38 52 42 -26 hvcurveto
          endchar
        </CharString>
        <CharString name="five.subs">
          -171 -182 55 callgsubr
          216 28 vstem
          -28 -102 -78 callgsubr
          endchar
        </CharString>
        <CharString name="five.sups">
          -171 428 55 callgsubr
          336 28 vstem
          92 508 -78 callgsubr
          endchar
        </CharString>
        <CharString name="five.tnum">
          -27 callgsubr
        </CharString>
        <CharString name="fiveeighths">
          249 -12 24 246 24 96 24 98 24 112 24 hstemhm
          296 28 110 9 callgsubr
          hintmask 1111111010000000
          52 338 -78 callgsubr
          96 -364 -53 callsubr
          322 108 -63 callgsubr
          hintmask 1111111101000000
          -69 callgsubr
          hintmask 1111111010000000
          -59 callgsubr
          hintmask 1111111101000000
          -64 callsubr
          hintmask 1111111010000000
          -50 -22 -50 -44 -58 vvcurveto
          endchar
        </CharString>
        <CharString name="fl">
          -43 -12 26 -20 20 7 90 callsubr
          -12 -20 hstemhm
          296 30 hintmask 01011010
          76 452 rmoveto
          62 hlineto
          hintmask 00111010
          -70 callsubr
          hintmask 10011010
          220 -424 -12 callsubr
          hintmask 00111010
          -4 24 rlineto
          hintmask 01010110
          -70 callgsubr
          endchar
        </CharString>
        <CharString name="fl.a">
          -53 69 callgsubr
          hstem
          48 414 vstem
          76 452 rmoveto
          62 hlineto
          -70 callsubr
          210 -474 -32 callgsubr
          144 40 callsubr
          endchar
        </CharString>
        <CharString name="four">
          -59 88 callgsubr
          8 404 hintmask 11011000
          276 -14 callsubr
        </CharString>
        <CharString name="four.dnom">
          -169 120 24 196 50 hstem
          22 258 vstem
          62 144 -61 callsubr
        </CharString>
        <CharString name="four.numr">
          -169 390 24 196 50 hstem
          72 258 vstem
          112 414 -61 callsubr
        </CharString>
        <CharString name="four.onum">
          -25 callgsubr
        </CharString>
        <CharString name="four.pnum">
          -61 88 callgsubr
          20 404 hintmask 11011000
          288 -14 callsubr
        </CharString>
        <CharString name="four.subs">
          -169 -50 24 196 50 hstem
          -8 258 vstem
          32 -26 -61 callsubr
        </CharString>
        <CharString name="four.sups">
          -169 560 24 196 50 hstem
          112 258 vstem
          152 584 -61 callsubr
        </CharString>
        <CharString name="four.tnum">
          -25 callgsubr
        </CharString>
        <CharString name="fraction">
          -439 -12 684 hstem
          -208 522 vstem
          -178 -12 -53 callsubr
          endchar
        </CharString>
        <CharString name="g">
          -27 callsubr
          hstemhm
          46 28 hintmask 11011000
          448 478 rmoveto
          hintmask 11101000
          -97 callgsubr
          hintmask 11011000
          -38 callgsubr
          hintmask 11101000
          -56 callsubr
          hintmask 11011000
          27 callsubr
          endchar
        </CharString>
        <CharString name="g.a">
          -20 callsubr
          98 callgsubr
          hintmask 11011110
          -95 callgsubr
          hintmask 11101101
          -60 callsubr
          hintmask 11011101
          36 callsubr
          hintmask 11011110
          -82 callgsubr
          hintmask 11011101
          -63 callsubr
          endchar
        </CharString>
        <CharString name="g.supa">
          -203 118 24 224 24 172 24 -16 24 hstemhm
          26 26 36 26 -23 25 144 26 -7 24 hintmask 1101101010000000
          91 452 rmoveto
          -29 11 -23 18 -16 vhcurveto
          -4 vlineto
          hintmask 1110110100000000
          -22 -18 -10 -14 -22 vvcurveto
          -18 8 -16 10 -6 vhcurveto
          -4 vlineto
          -34 -16 -46 -28 -46 vvcurveto
          -59 58 -15 46 80 76 34 66 44 -26 16 -80 12 vhcurveto
          -54 8 -12 8 27 vvcurveto
          15 13 15 13 10 vhcurveto
          -5 10 10 -2 14 hhcurveto
          hintmask 1110101010000000
          75 54 65 77 18 -5 22 -11 14 hvcurveto
          67 hlineto
          5 24 rlineto
          -100 hlineto
          hintmask 1101101010000000
          6 -11 -13 2 -15 hhcurveto
          -75 -54 -64 -78 hvcurveto
          hintmask 1110101100000000
          39 -180 rmoveto
          18 -4 10 -2 13 -1 rrcurveto
          67 -7 22 -12 -32 vvcurveto
          -39 -57 -33 -71 -42 -38 15 39 33 38 29 40 14 vhcurveto
          hintmask 1101101010000000
          88 298 rmoveto
          40 21 -26 -42 -57 -45 -55 -58 -39 -21 26 43 56 45 55 57 hvcurveto
          endchar
        </CharString>
        <CharString name="g.sups">
          -171 118 24 132 24 272 24 hstem
          64 26 vstem
          336 586 rmoveto
          11 callgsubr
          -114 -70 38 -40 56 44 38 20 28 34 hvcurveto
          4 hlineto
          -12 -60 rlineto
          -72 -16 -38 -48 -60 hhcurveto
          -36 -36 18 22 -24 hvcurveto
          -16 -20 rlineto
          -28 32 40 -16 38 hhcurveto
          74 51 58 80 16 hvcurveto
          65 330 rlineto
          -196 -288 rmoveto
          -40 -30 30 60 88 74 94 74 28 26 -14 -44 24 hvcurveto
          -30 -152 rlineto
          -36 -38 -48 -26 -40 hhcurveto
          endchar
        </CharString>
        <CharString name="gbreve">
          -27 callsubr
          118 24 hstemhm
          46 28 162 22 hintmask 11011110
          448 478 rmoveto
          hintmask 11101110
          -97 callgsubr
          hintmask 11011110
          -38 callgsubr
          hintmask 11101110
          -56 callsubr
          hintmask 11011110
          27 callsubr
          hintmask 11101110
          136 554 -100 callsubr
          endchar
        </CharString>
        <CharString name="gbreve.a">
          -20 callsubr
          86 24 62 callgsubr
          82 22 124 28 0 28 hintmask 1101111110000000
          -95 callgsubr
          hintmask 1110111101000000
          -60 callsubr
          hintmask 1101111101000000
          36 callsubr
          hintmask 1101111110000000
          -82 callgsubr
          hintmask 1101111101000000
          -63 callsubr
          8 112 -100 callsubr
          endchar
        </CharString>
        <CharString name="gcaron">
          -27 callsubr
          112 34 hstemhm
          46 28 hintmask 11010100
          448 478 rmoveto
          hintmask 11100100
          -97 callgsubr
          hintmask 11010100
          -38 callgsubr
          hintmask 11100100
          -56 callsubr
          hintmask 11010100
          54 callgsubr
          266 682 -84 callsubr
        </CharString>
        <CharString name="gcaron.a">
          -20 callsubr
          80 34 98 callgsubr
          hintmask 1101011100000000
          -95 callgsubr
          hintmask 1110011010000000
          -60 callsubr
          hintmask 1101011010000000
          36 callsubr
          hintmask 1101011100000000
          -82 callgsubr
          hintmask 1101111010000000
          -63 callsubr
          138 240 -84 callsubr
        </CharString>
        <CharString name="gcircumflex">
          -27 callsubr
          212 34 hstemhm
          46 28 hintmask 11010100
          448 478 rmoveto
          hintmask 11100100
          -97 callgsubr
          hintmask 11010100
          -38 callgsubr
          hintmask 11100100
          -56 callsubr
          hintmask 11010100
          54 callgsubr
          30 548 -79 callsubr
        </CharString>
        <CharString name="gcircumflex.a">
          -20 callsubr
          180 34 98 callgsubr
          hintmask 1101011100000000
          -95 callgsubr
          hintmask 1110011010000000
          -60 callsubr
          hintmask 1101011010000000
          36 callsubr
          hintmask 1101011100000000
          -82 callgsubr
          hintmask 1101111010000000
          -63 callsubr
          -98 106 -79 callsubr
        </CharString>
        <CharString name="gdotaccent">
          -27 callsubr
          hstemhm
          46 28 226 64 hintmask 11011000
          448 478 rmoveto
          hintmask 11101000
          -97 callgsubr
          hintmask 11011000
          -38 callgsubr
          hintmask 11101000
          -56 callsubr
          hintmask 11011000
          54 callgsubr
          142 578 -105 callsubr
        </CharString>
        <CharString name="gdotaccent.a">
          -20 callsubr
          62 callgsubr
          146 64 18 28 0 28 hintmask 1101110100000000
          -95 callgsubr
          hintmask 1110110010000000
          -60 callsubr
          hintmask 1101110010000000
          36 callsubr
          hintmask 1101110100000000
          -82 callgsubr
          hintmask 1101111010000000
          -63 callsubr
          14 136 -105 callsubr
        </CharString>
        <CharString name="germandbls">
          -3 -37 callsubr
          708 26 hstemhm
          270 28 120 28 -14 28 hintmask 01111000
          -33 callgsubr
          106 530 rlineto
          98 20 58 80 78 hhcurveto
          60 24 -40 -52 hvcurveto
          -120 -148 -24 -116 vvcurveto
          hintmask 10110100
          -102 162 -12 -118 vvcurveto
          -64 -56 -46 -64 -46 -36 18 30 -36 vhcurveto
          -18 -20 rlineto
          -34 38 50 -20 46 hhcurveto
          88 62 64 78 hvcurveto
          128 -162 8 96 vvcurveto
          hintmask 10111000
          94 148 26 134 vvcurveto
          76 -42 42 -68 -96 -66 -90 -104 -22 vhcurveto
          endchar
        </CharString>
        <CharString name="grave">
          -11 80 callsubr
          280 94 vstem
          350 570 -28 callsubr
        </CharString>
        <CharString name="greater">
          -59 156 348 hstem
          400 38 vstem
          48 156 rmoveto
          16 callsubr
        </CharString>
        <CharString name="greaterequal">
          -59 0 26 hstem
          400 38 vstem
          436 hmoveto
          72 callgsubr
          156 vmoveto
          16 callsubr
        </CharString>
        <CharString name="guillemotleft">
          -143 74 354 hstem
          40 316 vstem
          142 74 13 callgsubr
          238 -166 13 callgsubr
          endchar
        </CharString>
        <CharString name="guillemotright">
          -143 74 354 hstem
          20 316 37 callsubr
          34 166 51 callgsubr
          endchar
        </CharString>
        <CharString name="guilsinglleft">
          -279 74 354 hstem
          40 180 vstem
          142 74 13 callgsubr
          endchar
        </CharString>
        <CharString name="guilsinglright">
          -279 74 354 hstem
          20 180 37 callsubr
          endchar
        </CharString>
        <CharString name="h">
          66 callsubr
          hstem
          414 28 vstem
          -97 callsubr
          -54 -64 vhcurveto
          -4 hlineto
          12 46 56 278 -10 callsubr
          endchar
        </CharString>
        <CharString name="h.sups">
          -175 3 callgsubr
          3 13 3 14 15 77 callgsubr
          16 74 26 132 rlineto
          -26 hlineto
          endchar
        </CharString>
        <CharString name="hbar">
          -17 21 88 callsubr
          410 28 hintmask 11101000
          144 378 rmoveto
          12 46 32 160 rlineto
          186 -86 callsubr
          -187 hlineto
          hintmask 11011000
          23 112 -10 callsubr
          hintmask 11101000
          -22 -112 -74 -4 -4 -22 rlineto
          72 hlineto
          -116 -584 rlineto
          28 hlineto
          68 338 rlineto
          74 76 60 32 44 hhcurveto
          64 26 -32 -62 -20 -2 -14 -6 -30 hvcurveto
          -58 -286 rlineto
          28 hlineto
          58 290 rlineto
          6 28 2 12 24 vvcurveto
          68 -32 48 -82 -58 -54 -38 -54 -64 vhcurveto
          endchar
        </CharString>
        <CharString name="hcircumflex">
          66 callsubr
          125 26 hstem
          414 28 vstem
          -97 callsubr
          -54 -64 vhcurveto
          -4 hlineto
          12 46 56 278 -10 callsubr
          -90 29 -80 callgsubr
          endchar
        </CharString>
        <CharString name="hungarumlaut">
          -11 570 136 hstem
          246 266 vstem
          246 570 -18 callsubr
        </CharString>
        <CharString name="hyphen">
          32 callsubr
        </CharString>
        <CharString name="i">
          1 callgsubr
          hstem
          152 15 callgsubr
          endchar
        </CharString>
        <CharString name="i.sups">
          -365 662 54 hstem
          136 50 26 callsubr
          62 316 rlineto
          -26 hlineto
          30 76 49 callgsubr
        </CharString>
        <CharString name="iacute">
          1 callgsubr
          hstem
          44 232 -42 callgsubr
          -18 92 -60 callgsubr
        </CharString>
        <CharString name="icircumflex">
          1 callgsubr
          212 34 hstem
          44 234 -42 callgsubr
          -70 92 -79 callsubr
        </CharString>
        <CharString name="idieresis">
          1 callgsubr
          144 64 hstem
          86 58 88 58 -42 callgsubr
          -28 124 rmoveto
          -102 callgsubr
        </CharString>
        <CharString name="igrave">
          1 callgsubr
          hstem
          44 178 -42 callgsubr
          58 92 -28 callsubr
        </CharString>
        <CharString name="imacron">
          1 callgsubr
          150 26 hstem
          44 248 -42 callgsubr
          -64 130 -83 callgsubr
        </CharString>
        <CharString name="infinity">
          213 178 28 -16 24 230 26 -10 24 hstemhm
          22 28 594 28 hintmask 01011100
          158 190 rmoveto
          84 50 66 46 34 hvcurveto
          4 hlineto
          hintmask 10011100
          -70 56 54 -54 82 hhcurveto
          88 62 66 88 92 -62 60 -90 -84 -50 -62 -66 -52 hvcurveto
          -4 hlineto
          hintmask 01101100
          46 -34 -53 68 -79 hhcurveto
          -78 -64 -54 -86 hvcurveto
          hintmask 01011100
          -82 64 -58 72 vhcurveto
          hintmask 10011100
          188 140 rmoveto
          76 54 54 54 64 hhcurveto
          78 48 -57 -73 -70 -46 -54 -74 -62 -52 36 88 -64 hvcurveto
          hintmask 01101100
          -184 -116 rmoveto
          -58 -54 48 70 70 52 42 60 56 48 -46 -68 48 hvcurveto
          -60 -38 -52 -56 -62 hhcurveto
          endchar
        </CharString>
        <CharString name="integral">
          -237 -158 26 894 26 hstem
          -22 382 vstem
          -14 -128 rmoveto
          -8 -24 rlineto
          -4 6 14 -2 16 hhcurveto
          82 30 90 124 26 hvcurveto
          26 134 8 240 28 142 rrcurveto
          108 20 28 82 58 hhcurveto
          14 12 -2 -2 6 hvcurveto
          8 24 rlineto
          4 -6 -14 2 -16 hhcurveto
          -84 -28 -94 -120 -24 hvcurveto
          -28 -134 -6 -244 -28 -138 rrcurveto
          -112 -22 -24 -78 -62 hhcurveto
          -14 -10 2 2 -8 hvcurveto
          endchar
        </CharString>
        <CharString name="iogonek">
          75 callsubr
          166 64 vstem
          44 hmoveto
          2 hlineto
          -42 -5 callsubr
          46 36 44 50 44 hvcurveto
          96 92 callsubr
          40 -5 callgsubr
          endchar
        </CharString>
        <CharString name="iogonek.d">
          75 callsubr
          vstem
          44 hmoveto
          2 hlineto
          -42 -5 callsubr
          46 36 44 50 44 hvcurveto
          96 92 callsubr
          endchar
        </CharString>
        <CharString name="itilde">
          1 callgsubr
          122 24 36 24 hstem
          44 264 -42 callgsubr
          -58 104 -92 callgsubr
        </CharString>
        <CharString name="j">
          79 callsubr
          hstem
          152 64 -25 callsubr
          128 698 -105 callsubr
        </CharString>
        <CharString name="j.sups">
          -365 118 24 520 54 hstem
          136 50 vstem
          154 586 rmoveto
          -26 hlineto
          -74 -378 rlineto
          -38 -8 -16 -28 -30 hhcurveto
          -16 -10 6 4 -8 hvcurveto
          -12 -20 rlineto
          -8 14 14 -6 16 hhcurveto
          46 25 32 58 11 hvcurveto
          78 454 49 callgsubr
        </CharString>
        <CharString name="jcircumflex">
          79 callsubr
          212 34 hstem
          -118 390 -25 callsubr
          12 668 -79 callsubr
        </CharString>
        <CharString name="k">
          -79 28 callgsubr
          264 -20 hstem
          44 400 -46 callgsubr
          108 546 -10 callsubr
          endchar
        </CharString>
        <CharString name="k.sups">
          -215 270 474 hstem
          66 274 26 callsubr
          16 86 90 88 72 -174 rlineto
          26 hlineto
          -78 190 122 126 -24 callgsubr
          -190 -186 rlineto
          -4 hlineto
          70 344 rlineto
          -26 hlineto
          endchar
        </CharString>
        <CharString name="kgreenlandic">
          -79 28 callgsubr
          hstem
          44 400 -46 callgsubr
          60 302 -10 callsubr
          endchar
        </CharString>
        <CharString name="l">
          82 callsubr
          -65 callgsubr
          endchar
        </CharString>
        <CharString name="l.a">
          39 callsubr
          hstem
          44 172 -11 callsubr
          endchar
        </CharString>
        <CharString name="l.supa">
          -364 270 474 hstem
          66 120 26 callsubr
          94 474 rlineto
          -26 hlineto
          endchar
        </CharString>
        <CharString name="l.sups">
          -363 262 26 hstem
          72 26 vstem
          76 320 rmoveto
          -2 -8 -2 -10 -8 vvcurveto
          -20 10 -12 18 10 9 2 3 8 vhcurveto
          -3 24 rlineto
          -3 -6 -5 0 -3 hhcurveto
          -7 -5 4 6 4 0 2 2 9 hvcurveto
          86 431 rlineto
          -26 hlineto
          endchar
        </CharString>
        <CharString name="lacute">
          82 callsubr
          -65 callgsubr
          -13 38 -39 callgsubr
        </CharString>
        <CharString name="lacute.a">
          39 callsubr
          hstem
          44 279 -11 callsubr
          -13 38 -39 callgsubr
        </CharString>
        <CharString name="lcaron">
          -305 -12 7 callgsubr
          -65 callgsubr
          72 -174 -13 callsubr
        </CharString>
        <CharString name="lcaron.a">
          -305 21 101 callgsubr
          hstem
          44 262 -11 callsubr
          72 -174 -13 callsubr
        </CharString>
        <CharString name="ldot">
          -257 -12 7 callgsubr
          138 68 hintmask 10111000
          -4 callsubr
          hintmask 01111000
          -4 24 rlineto
          -70 callgsubr
          58 -432 -50 callsubr
          endchar
        </CharString>
        <CharString name="ldot.a">
          -257 21 101 callgsubr
          hstemhm
          44 242 -68 68 hintmask 11100000
          -33 callgsubr
          144 40 callsubr
          hintmask 11010000
          58 -432 -50 callsubr
          endchar
        </CharString>
        <CharString name="less">
          -59 156 348 hstem
          46 38 vstem
          46 12 callsubr
        </CharString>
        <CharString name="lessequal">
          -59 0 26 hstem
          46 38 vstem
          436 hmoveto
          72 callgsubr
          -2 12 callsubr
        </CharString>
        <CharString name="lira">
          -59 0 26 228 24 72 24 252 26 hstemhm
          150 28 -18 28 hintmask 11110100
          76 370 rmoveto
          -6 -20 rlineto
          85 hlineto
          2 -25 2 -25 1 -22 -104 -4 rcurveline
          -6 -20 rlineto
          110 hlineto
          -4 -97 -47 -89 -97 -52 -4 -16 rcurveline
          346 hlineto
          4 26 rlineto
          -278 4 hlineto
          67 58 36 70 5 96 rrcurveto
          142 hlineto
          6 24 rlineto
          -148 hlineto
          23 -2 25 -2 24 vhcurveto
          166 hlineto
          6 24 rlineto
          hintmask 11111000
          -174 hlineto
          -2 26 -2 26 22 29 callgsubr
          -21 2 -24 1 -24 hvcurveto
          endchar
        </CharString>
        <CharString name="logicalnot">
          -59 318 26 hstem
          408 28 vstem
          48 318 rmoveto
          360 -208 28 234 -388 hlineto
          endchar
        </CharString>
        <CharString name="lozenge">
          -39 -10 24 632 24 hstem
          74 357 vstem
          233 -10 rmoveto
          38 hlineto
          160 340 -160 340 rlineto
          -38 hlineto
          -159 -340 rlineto
          176 -316 rmoveto
          -67 142 -77 174 77 172 67 144 -24 callsubr
          68 -144 77 -172 -77 -174 -68 -142 rlineto
          endchar
        </CharString>
        <CharString name="lslash">
          82 callsubr
          hintmask 01110000
          151 393 rmoveto
          83 50 6 34 60 callsubr
          rlineto
          hintmask 10110000
          -64 -322 rlineto
          -54 callgsubr
          hintmask 01110000
          -4 24 rlineto
          -4 -10 -2 0 -4 hhcurveto
          -10 -4 6 8 4 0 6 2 10 hvcurveto
          endchar
        </CharString>
        <CharString name="lslash.a">
          39 callsubr
          hstem
          44 196 vstem
          240 477 rmoveto
          60 callsubr
          -74 -372 rlineto
          28 hlineto
          78 393 84 50 rlineto
          endchar
        </CharString>
        <CharString name="m">
          96 callgsubr
          400 26 260 28 hintmask 11011000
          -32 callsubr
          hintmask 10111000
          12 78 -19 callgsubr
          endchar
        </CharString>
        <CharString name="m.sups">
          7 570 24 hstem
          304 24 166 26 26 callsubr
          46 230 rlineto
          44 42 42 26 30 hhcurveto
          34 18 -20 -40 -12 -2 -10 -4 -18 hvcurveto
          -40 -200 rlineto
          26 hlineto
          46 230 rlineto
          44 40 42 26 30 hhcurveto
          34 18 -20 -40 -10 -2 -12 -4 -18 hvcurveto
          -40 -200 rlineto
          26 hlineto
          40 204 rlineto
          4 18 2 12 12 vvcurveto
          48 -20 30 -56 -34 -38 -24 -38 -44 vhcurveto
          32 -4 -14 30 -56 hhcurveto
          -34 -38 -24 -32 -34 hvcurveto
          -4 hlineto
          6 48 rlineto
          -22 hlineto
          endchar
        </CharString>
        <CharString name="macron">
          -11 608 26 hstem
          228 216 vstem
          228 608 -83 callgsubr
        </CharString>
        <CharString name="minus">
          -59 318 26 hstem
          48 388 vstem
          436 318 rmoveto
          72 callgsubr
          endchar
        </CharString>
        <CharString name="multiply">
          -59 148 366 hstem
          66 352 vstem
          242 314 rmoveto
          158 -166 18 18 -158 166 158 164 -18 18 -158 -164 -158 164 -18 -18 158 -164 -158 -166 18 -18 rlineto
          endchar
        </CharString>
        <CharString name="n">
          -11 21 -55 callgsubr
          hstemhm
          414 28 hintmask 11010000
          -97 callsubr
          -52 -60 vhcurveto
          -4 hlineto
          hintmask 10110000
          12 78 -19 callgsubr
          endchar
        </CharString>
        <CharString name="n.sups">
          -173 3 callgsubr
          4 18 2 8 16 77 callgsubr
          6 48 rlineto
          -22 hlineto
          endchar
        </CharString>
        <CharString name="nacute">
          -11 21 -55 callgsubr
          hstemhm
          414 28 hintmask 11010000
          -97 callsubr
          -52 -60 vhcurveto
          -4 hlineto
          hintmask 10110000
          12 78 -19 callgsubr
          136 92 -60 callgsubr
        </CharString>
        <CharString name="napostrophe">
          157 21 -55 callgsubr
          178 66 hstemhm
          194 32 358 28 hintmask 11011100
          126 498 -75 callgsubr
          208 -118 rmoveto
          hintmask 10111100
          12 78 -19 callgsubr
          -96 -478 rlineto
          28 hlineto
          72 358 rlineto
          hintmask 11011100
          74 76 60 32 44 hhcurveto
          64 26 -32 -62 -20 -2 -14 -6 -30 hvcurveto
          -62 -306 rlineto
          28 71 callgsubr
          6 28 2 12 24 vvcurveto
          68 -32 48 -82 -58 -54 -38 -52 -60 vhcurveto
          endchar
        </CharString>
        <CharString name="nbspace.frac">
          -387 endchar
        </CharString>
        <CharString name="ncaron">
          -11 21 -55 callgsubr
          112 34 hstemhm
          414 28 hintmask 11011000
          -97 callsubr
          -52 -60 vhcurveto
          -4 hlineto
          hintmask 10111000
          12 78 -19 callgsubr
          320 226 -84 callsubr
        </CharString>
        <CharString name="nine">
          -43 callsubr
        </CharString>
        <CharString name="nine.dnom">
          -169 -12 54 callsubr
          44 62 callsubr
          152 176 -76 callgsubr
        </CharString>
        <CharString name="nine.numr">
          -169 258 54 callsubr
          94 62 callsubr
          202 446 -76 callgsubr
        </CharString>
        <CharString name="nine.onum">
          -43 callgsubr
        </CharString>
        <CharString name="nine.pnum">
          -43 callsubr
        </CharString>
        <CharString name="nine.subs">
          -169 -182 54 callsubr
          14 62 callsubr
          122 6 -76 callgsubr
        </CharString>
        <CharString name="nine.sups">
          -169 428 54 callsubr
          134 62 callsubr
          242 616 -76 callgsubr
        </CharString>
        <CharString name="nine.tnum">
          -43 callgsubr
        </CharString>
        <CharString name="notequal">
          74 callsubr
          218 rmoveto
          26 -232 vlineto
          106 172 rlineto
          126 26 -112 hlineto
          82 130 -24 callgsubr
          -82 -130 rlineto
          -246 -26 232 hlineto
          -106 -172 rlineto
          -126 -26 112 hlineto
          -82 -130 rlineto
          30 hlineto
          82 130 rlineto
          endchar
        </CharString>
        <CharString name="ntilde">
          -11 21 -55 callgsubr
          122 24 36 24 hstemhm
          414 28 hintmask 11011100
          -97 callsubr
          -52 -60 vhcurveto
          -4 hlineto
          hintmask 10111100
          12 78 -19 callgsubr
          96 104 -92 callgsubr
        </CharString>
        <CharString name="numbersign">
          -57 21 -21 218 28 178 28 198 -20 hstem
          28 438 vstem
          42 hmoveto
          28 hlineto
          68 218 rlineto
          146 hlineto
          -68 -218 rlineto
          28 hlineto
          68 218 rlineto
          86 hlineto
          8 28 rlineto
          -84 hlineto
          54 178 rlineto
          82 hlineto
          8 28 rlineto
          -82 hlineto
          62 198 -10 callsubr
          -62 -198 rlineto
          -146 hlineto
          62 198 -10 callsubr
          -62 -198 rlineto
          -86 hlineto
          -8 -28 rlineto
          84 hlineto
          -54 -178 rlineto
          -82 hlineto
          -8 -28 rlineto
          82 hlineto
          36 28 rmoveto
          54 178 rlineto
          148 hlineto
          -54 -178 rlineto
          endchar
        </CharString>
        <CharString name="o">
          5 callgsubr
          hstem
          46 28 352 28 vstem
          -104 callgsubr
          endchar
        </CharString>
        <CharString name="o.sups">
          -12 callgsubr
        </CharString>
        <CharString name="oacute">
          5 callgsubr
          hstem
          46 28 352 28 vstem
          -104 callgsubr
          -20 106 -60 callgsubr
        </CharString>
        <CharString name="ocircumflex">
          5 callgsubr
          180 34 hstem
          46 28 352 28 vstem
          -104 callgsubr
          -72 106 -79 callsubr
        </CharString>
        <CharString name="odieresis">
          5 callgsubr
          112 64 hstemhm
          46 28 164 58 88 58 -16 28 hintmask 11111010
          -104 callgsubr
          -30 138 -2 callsubr
          hintmask 11111100
          146 hmoveto
          16 16 16 20 18 -10 10 -16 -16 -16 -16 -22 -16 100 callgsubr
        </CharString>
        <CharString name="oe">
          309 -10 callgsubr
          hstem
          46 28 352 21 313 28 vstem
          204 -12 rmoveto
          88 84 62 98 44 hvcurveto
          -104 12 60 -56 88 hhcurveto
          52 50 24 28 38 hvcurveto
          -54 callsubr
          -86 -69 68 160 25 hvcurveto
          324 hlineto
          6 20 6 28 32 vvcurveto
          98 -40 70 -102 -74 -78 -56 -94 -42 vhcurveto
          96 -12 -58 54 -86 hhcurveto
          -101 callgsubr
          164 -196 rmoveto
          114 24 80 82 82 hhcurveto
          86 30 -68 -68 -22 -2 -18 -4 -20 hvcurveto
          endchar
        </CharString>
        <CharString name="ogonek">
          -11 -202 26 hstem
          118 30 vstem
          118 -140 rmoveto
          -85 callsubr
          46 42 52 60 40 hvcurveto
          -34 hlineto
          -50 -34 -48 -58 -52 vvcurveto
          endchar
        </CharString>
        <CharString name="ograve">
          5 callgsubr
          hstem
          46 28 352 28 vstem
          -104 callgsubr
          56 106 -28 callsubr
        </CharString>
        <CharString name="ohorn">
          38 callsubr
          57 callgsubr
          34 30 hintmask 10111100
          206 14 -41 callsubr
        </CharString>
        <CharString name="ohungarumlaut">
          5 callgsubr
          80 136 hstem
          46 28 352 28 vstem
          -104 callgsubr
          -48 106 -18 callsubr
        </CharString>
        <CharString name="omacron">
          5 callgsubr
          118 26 hstem
          46 28 352 28 vstem
          -104 callgsubr
          -66 144 -83 callgsubr
        </CharString>
        <CharString name="one">
          -59 0 26 556 48 callgsubr
          124 614 -6 callsubr
          -112 -556 rlineto
          -144 hlineto
          endchar
        </CharString>
        <CharString name="one.dnom">
          -175 334 20 hstem
          96 130 vstem
          122 hmoveto
          -51 callsubr
          endchar
        </CharString>
        <CharString name="one.numr">
          -175 604 20 hstem
          146 130 vstem
          172 270 42 callgsubr
        </CharString>
        <CharString name="one.onum">
          -199 21 -21 512 20 -20 58 hstemhm
          88 152 hintmask 10110000
          96 hmoveto
          28 hlineto
          116 570 -6 callsubr
          endchar
        </CharString>
        <CharString name="one.pnum">
          -205 21 -21 582 20 -20 58 hstemhm
          112 156 hintmask 10110000
          140 hmoveto
          128 640 -6 callsubr
          -116 -582 rlineto
          endchar
        </CharString>
        <CharString name="one.subs">
          -175 164 20 hstem
          66 130 vstem
          92 -170 42 callgsubr
        </CharString>
        <CharString name="one.sups">
          -175 774 20 hstem
          186 130 vstem
          212 440 42 callgsubr
        </CharString>
        <CharString name="one.tnum">
          -59 0 26 486 48 callgsubr
          110 544 -6 callsubr
          -98 -486 rlineto
          -144 hlineto
          endchar
        </CharString>
        <CharString name="oneeighth">
          227 -12 101 callsubr
          202 20 hstemhm
          414 9 callgsubr
          hintmask 11110100
          152 270 rmoveto
          -51 callsubr
          -100 -616 -53 callsubr
          354 108 -63 callgsubr
          hintmask 11111010
          -69 callgsubr
          hintmask 11110100
          -59 callgsubr
          hintmask 11111010
          -64 callsubr
          hintmask 11110100
          -50 -22 -50 -44 -58 vvcurveto
          endchar
        </CharString>
        <CharString name="onehalf">
          225 0 24 -15 -21 390 24 202 20 hstemhm
          656 28 hintmask 10111000
          152 270 rmoveto
          -51 callsubr
          hintmask 01111000
          -98 -616 -53 callsubr
          hintmask 10111000
          312 12 rmoveto
          -78 callsubr
          endchar
        </CharString>
        <CharString name="onequarter">
          209 0 144 -135 -21 132 24 196 50 214 20 hstemhm
          120 536 hintmask 01111100
          156 270 rmoveto
          -51 callsubr
          390 68 rmoveto
          -492 -684 rlineto
          30 hlineto
          492 684 rlineto
          -204 -528 rmoveto
          102 114 72 82 -24 callsubr
          -24 -98 -19 -98 rlineto
          83 hmoveto
          -57 hlineto
          49 246 rlineto
          -18 hlineto
          -228 -252 -4 -18 rlineto
          170 hlineto
          hintmask 10011100
          -24 -120 rlineto
          26 hlineto
          hintmask 01111100
          24 120 rlineto
          56 hlineto
          endchar
        </CharString>
        <CharString name="onethird">
          237 -12 68 callgsubr
          202 20 hstemhm
          636 28 -4 28 hintmask 11111000
          152 270 rmoveto
          -51 callsubr
          -98 -616 -53 callsubr
          318 80 rmoveto
          -42 callsubr
          hintmask 11110100
          60 16 40 46 48 vvcurveto
          60 -42 34 -60 -40 -38 -14 -28 -34 vhcurveto
          14 -21 rlineto
          25 30 35 14 31 hhcurveto
          48 28 -28 -42 -44 -40 -50 -102 hvcurveto
          -6 -24 rlineto
          hintmask 11111000
          -11 callgsubr
        </CharString>
        <CharString name="ordfeminine">
          -29 callsubr
        </CharString>
        <CharString name="ordfeminine.a">
          -48 callgsubr
        </CharString>
        <CharString name="ordmasculine">
          -12 callgsubr
        </CharString>
        <CharString name="oslash">
          -15 -12 26 3 -21 468 26 -10 -20 57 callgsubr
          hintmask 10101100
          412 384 rmoveto
          9 -24 5 -30 -34 vvcurveto
          -152 -112 -130 -108 -46 -35 17 34 -22 vhcurveto
          -13 24 rmoveto
          -11 25 -5 31 37 vvcurveto
          152 112 130 108 48 36 -19 -37 23 vhcurveto
          hintmask 10011100
          105 72 rmoveto
          hintmask 01101100
          -18 18 -67 -69 rlineto
          40 -28 -43 21 -54 hhcurveto
          -130 -120 -136 -178 -43 8 -37 15 -29 hvcurveto
          -69 -71 rlineto
          hintmask 10011100
          18 -18 65 67 rlineto
          -37 27 42 -20 52 hhcurveto
          130 120 136 178 41 -7 34 -13 29 hvcurveto
          endchar
        </CharString>
        <CharString name="otilde">
          5 callgsubr
          90 24 36 24 hstem
          46 28 352 28 vstem
          -104 callgsubr
          -60 118 -92 callgsubr
        </CharString>
        <CharString name="p">
          5 -201 -21 210 33 callsubr
          -12 -20 hstemhm
          448 28 hintmask 11101000
          84 68 rmoveto
          2 hlineto
          -46 28 44 -34 58 hhcurveto
          132 128 146 184 111 -56 61 -84 -68 -60 -40 -42 -52 hvcurveto
          -4 hlineto
          hintmask 11011000
          12 70 -19 callgsubr
          -140 -700 rlineto
          28 hlineto
          34 180 rlineto
          hintmask 11101000
          272 506 rmoveto
          70 44 -51 -101 35 callsubr
          24 64 -38 hvcurveto
          54 268 rlineto
          54 58 74 40 56 hhcurveto
          endchar
        </CharString>
        <CharString name="p.sups">
          -165 262 24 260 40 -16 24 hstemhm
          128 20 184 26 hintmask 10111000
          98 312 rmoveto
          4 hlineto
          -36 18 30 -14 32 hhcurveto
          90 86 96 120 76 -38 40 -56 -46 -34 -20 -28 -34 hvcurveto
          -4 hlineto
          hintmask 11011000
          4 40 rlineto
          -22 hlineto
          -90 -456 rlineto
          26 hlineto
          22 110 rlineto
          hintmask 10111000
          176 330 24 callsubr
        </CharString>
        <CharString name="paragraph">
          -39 660 -20 hstem
          76 388 vstem
          288 -80 -32 callgsubr
          148 740 -10 callsubr
          -136 -412 rmoveto
          2 hlineto
          84 412 rlineto
          -52 hlineto
          -130 -128 -82 -160 -112 102 -58 122 hvcurveto
          endchar
        </CharString>
        <CharString name="parenleft">
          -255 -174 904 hstem
          72 28 vstem
          128 -174 rmoveto
          20 6 rlineto
          -32 80 -16 116 100 vvcurveto
          222 80 194 142 172 vhcurveto
          -18 14 rlineto
          -144 -184 -88 -178 -234 vvcurveto
          -110 22 -112 34 -86 vhcurveto
          endchar
        </CharString>
        <CharString name="parenleft.dnom">
          -311 -72 528 hstem
          40 26 vstem
          184 456 -40 callgsubr
        </CharString>
        <CharString name="parenleft.numr">
          -311 198 528 hstem
          90 26 vstem
          234 726 -40 callgsubr
        </CharString>
        <CharString name="parenleft.subs">
          -311 -242 528 hstem
          10 26 vstem
          154 286 -40 callgsubr
        </CharString>
        <CharString name="parenleft.sups">
          -311 368 528 hstem
          130 26 vstem
          274 896 -40 callgsubr
        </CharString>
        <CharString name="parenright">
          -253 -174 904 hstem
          168 28 vstem
          140 730 rmoveto
          -20 -6 rlineto
          32 -80 16 -116 -100 vvcurveto
          -222 -80 -194 -142 -172 vhcurveto
          18 -14 rlineto
          144 184 88 178 234 vvcurveto
          110 -22 112 -34 86 vhcurveto
          endchar
        </CharString>
        <CharString name="parenright.dnom">
          -311 -72 528 hstem
          114 26 vstem
          -4 -72 -40 callsubr
        </CharString>
        <CharString name="parenright.numr">
          -311 198 528 hstem
          164 26 vstem
          46 198 -40 callsubr
        </CharString>
        <CharString name="parenright.subs">
          -311 -242 528 hstem
          84 26 vstem
          -34 -242 -40 callsubr
        </CharString>
        <CharString name="parenright.sups">
          -311 368 528 hstem
          204 26 vstem
          86 368 -40 callsubr
        </CharString>
        <CharString name="partialdiff">
          -31 -12 26 354 26 246 26 hstem
          18 28 390 28 vstem
          170 14 rmoveto
          -76 -46 62 66 -2 hvcurveto
          112 78 114 118 77 49 -48 -59 36 vhcurveto
          -45 -134 -86 -112 -103 -1 rrcurveto
          24 578 rmoveto
          26 30 42 22 38 hhcurveto
          92 40 -74 -108 -54 -8 -57 -15 -54 hvcurveto
          57 -38 -52 44 -79 hhcurveto
          -136 -90 -130 -124 -92 64 -60 86 166 130 244 232 120 -48 82 -110 -48 -44 -24 -30 -34 hvcurveto
          endchar
        </CharString>
        <CharString name="percent">
          245 44 callgsubr
          vstem
          178 258 rmoveto
          -90 callgsubr
          -80 -660 -53 callsubr
          414 hmoveto
          -90 callgsubr
          endchar
        </CharString>
        <CharString name="period">
          -313 -12 76 hstem
          22 68 vstem
          50 -12 -50 callsubr
          endchar
        </CharString>
        <CharString name="period.dnom">
          -369 -8 68 hstem
          -4 64 vstem
          22 -8 -4 callgsubr
        </CharString>
        <CharString name="period.numr">
          -369 262 68 hstem
          46 64 vstem
          72 262 -4 callgsubr
        </CharString>
        <CharString name="period.subs">
          -369 -178 68 hstem
          -34 64 vstem
          -8 -178 -4 callgsubr
        </CharString>
        <CharString name="period.sups">
          -369 432 68 hstem
          86 64 vstem
          112 432 -4 callgsubr
        </CharString>
        <CharString name="periodcentered">
          -313 292 76 hstem
          82 68 vstem
          110 292 -50 callsubr
          endchar
        </CharString>
        <CharString name="perthousand">
          583 44 callgsubr
          54 94 callsubr
          vstem
          160 -12 -53 callsubr
          48 270 rmoveto
          -90 callgsubr
          304 -660 rmoveto
          -90 callgsubr
          276 -390 rmoveto
          -90 callgsubr
          endchar
        </CharString>
        <CharString name="peseta">
          -59 21 -21 274 26 150 26 138 26 hstem
          394 28 vstem
          134 300 rmoveto
          30 150 rlineto
          226 hlineto
          -103 -17 -83 -47 -120 hhcurveto
          26 314 rmoveto
          34 hlineto
          108 56 -34 -86 -6 0 -6 -1 -6 hvcurveto
          -224 hlineto
          315 hmoveto
          -63 hlineto
          1 8 0 8 8 vvcurveto
          94 -68 46 -104 vhcurveto
          -78 hlineto
          -33 -164 -81 -4 -4 -22 rlineto
          80 hlineto
          -90 -450 rlineto
          30 hlineto
          54 274 rlineto
          46 hlineto
          127 96 58 118 21 hvcurveto
          60 hlineto
          endchar
        </CharString>
        <CharString name="pi">
          -9 -12 26 438 26 hstem
          328 30 vstem
          62 hmoveto
          28 hlineto
          90 452 rlineto
          226 hlineto
          -74 -374 rlineto
          -46 -10 6 -44 44 hhcurveto
          16 8 2 8 18 hvcurveto
          -6 22 rlineto
          -4 -10 -6 -2 -10 hhcurveto
          -26 -4 24 30 6 hvcurveto
          76 384 rlineto
          78 -86 callsubr
          -382 hlineto
          -64 -4 -2 -22 rlineto
          82 hlineto
          endchar
        </CharString>
        <CharString name="plus">
          -59 318 20 callsubr
          endchar
        </CharString>
        <CharString name="plusminus">
          -59 0 26 292 20 callsubr
          208 -318 rmoveto
          72 callgsubr
          endchar
        </CharString>
        <CharString name="product">
          103 614 26 hstem
          20 582 vstem
          20 -120 -32 callgsubr
          148 734 rlineto
          374 hlineto
          -148 -734 rlineto
          28 hlineto
          152 760 rlineto
          -430 hlineto
          endchar
        </CharString>
        <CharString name="q">
          9 -201 -21 210 33 callsubr
          -12 -20 hstemhm
          46 28 hintmask 11101000
          346 -42 rmoveto
          -36 -180 rlineto
          28 hlineto
          hintmask 11011000
          140 700 -19 callgsubr
          hintmask 11101000
          -18 -68 rlineto
          4 callsubr
          -112 56 -60 84 68 64 40 52 50 hvcurveto
          2 hlineto
          -182 -66 rmoveto
          -70 -44 50 102 148 110 150 120 48 40 -26 -66 38 hvcurveto
          -52 -250 rlineto
          -68 -60 -74 -40 -56 hhcurveto
          endchar
        </CharString>
        <CharString name="q.sups">
          -169 19 callgsubr
          356 586 rmoveto
          -20 hlineto
          11 callgsubr
          -120 -76 38 -40 56 46 40 24 36 34 hvcurveto
          4 hlineto
          -20 -82 -22 -110 rlineto
          26 hlineto
          -106 156 -23 callsubr
        </CharString>
        <CharString name="question">
          -135 -12 76 -55 -21 668 26 hstemhm
          98 68 192 28 hintmask 01111000
          126 -12 rmoveto
          64 callgsubr
          hvcurveto
          hintmask 10111000
          18 -8 14 -18 -22 -20 -24 -22 vhcurveto
          hintmask 01111000
          -16 10 -14 18 vhcurveto
          18 188 rmoveto
          26 -2 rlineto
          8 164 208 50 166 vvcurveto
          80 -48 48 -80 -60 -56 -32 -36 -32 vhcurveto
          18 -20 rlineto
          36 32 48 26 48 hhcurveto
          64 38 -40 -68 -146 -208 -50 -6 -176 hvcurveto
          endchar
        </CharString>
        <CharString name="questiondown">
          -135 -202 26 592 76 hstem
          -6 28 192 68 vstem
          254 492 rmoveto
          -22 -18 -22 -22 -18 8 -14 18 22 20 24 22 16 -10 14 -18 hvcurveto
          -18 -188 rmoveto
          -26 2 rlineto
          -8 -164 -208 -50 -166 vvcurveto
          -80 48 -48 80 60 56 32 36 32 vhcurveto
          -18 20 rlineto
          -36 -32 -48 -26 -48 hhcurveto
          -64 -38 40 68 146 208 50 6 176 hvcurveto
          endchar
        </CharString>
        <CharString name="quotedbl">
          -191 478 194 hstem
          134 186 50 callsubr
          98 -130 rmoveto
          22 hlineto
          30 130 56 callgsubr
          endchar
        </CharString>
        <CharString name="quotedblbase">
          -323 -2 66 hstem
          62 32 90 32 vstem
          -6 -140 -75 callgsubr
          134 -20 -75 callgsubr
          endchar
        </CharString>
        <CharString name="quotedblleft">
          -191 498 66 hstem
          120 32 90 32 vstem
          220 702 -34 callgsubr
          110 20 -34 callgsubr
          endchar
        </CharString>
        <CharString name="quotedblright">
          -191 636 66 hstem
          194 32 90 32 vstem
          126 498 -75 callgsubr
          134 -20 -75 callgsubr
          endchar
        </CharString>
        <CharString name="quoteleft">
          -313 498 66 hstem
          120 32 vstem
          220 702 -34 callgsubr
          endchar
        </CharString>
        <CharString name="quoteright">
          -313 636 66 hstem
          194 32 vstem
          126 498 -75 callgsubr
          endchar
        </CharString>
        <CharString name="quotesinglbase">
          -313 -2 66 hstem
          62 32 vstem
          -6 -140 -75 callgsubr
          endchar
        </CharString>
        <CharString name="quotesingle">
          -313 478 194 hstem
          134 64 50 callsubr
          endchar
        </CharString>
        <CharString name="r">
          4 callgsubr
          hstemhm
          44 300 -66 callgsubr
          endchar
        </CharString>
        <CharString name="r.sups">
          -315 566 28 hstem
          66 194 26 callsubr
          44 218 rlineto
          54 32 32 24 32 hhcurveto
          6 4 0 -4 8 hvcurveto
          10 28 rlineto
          4 -10 -4 0 -6 hhcurveto
          -38 -30 -22 -36 -26 hvcurveto
          -4 hlineto
          8 50 rlineto
          -22 hlineto
          endchar
        </CharString>
        <CharString name="racute">
          4 callgsubr
          hstemhm
          44 302 -66 callgsubr
          52 92 -60 callgsubr
        </CharString>
        <CharString name="radical">
          -1 -108 48 hstem
          68 560 vstem
          220 -14 rmoveto
          -46 392 -106 -50 4 -26 76 32 56 -442 rlineto
          28 hlineto
          396 928 rlineto
          -32 hlineto
          -352 -834 -18 -46 rlineto
          -4 hlineto
          endchar
        </CharString>
        <CharString name="rcaron">
          4 callgsubr
          80 34 hstemhm
          44 332 -3 callgsubr
          236 226 -84 callsubr
        </CharString>
        <CharString name="registered">
          -139 332 24 138 24 82 24 58 24 hstem
          66 26 200 26 68 26 vstem
          162 418 rmoveto
          26 hlineto
          16 76 rlineto
          40 hlineto
          26 -76 rlineto
          28 hlineto
          -30 82 rlineto
          28 10 22 24 32 vvcurveto
          38 -22 20 -38 vhcurveto
          -54 hlineto
          6 -106 rmoveto
          14 82 rlineto
          30 hlineto
          26 12 -14 -22 -30 -22 -16 -34 hvcurveto
          -16 -186 rmoveto
          106 86 101 111 96 -70 66 -84 -108 -84 -103 -109 -98 70 -64 84 hvcurveto
          36 350 rmoveto
          80 50 -60 -82 -100 -76 -84 -88 -82 -48 60 82 98 74 86 90 hvcurveto
          endchar
        </CharString>
        <CharString name="ring">
          -11 534 22 126 22 hstem
          258 102 callsubr
          vstem
          328 534 -68 callsubr
        </CharString>
        <CharString name="s">
          95 callsubr
          184 28 vstem
          -95 callsubr
          endchar
        </CharString>
        <CharString name="s.sups">
          -255 14 callgsubr
          88 26 114 26 vstem
          32 316 rmoveto
          -30 28 36 -24 46 hhcurveto
          64 48 34 60 34 -20 27 -60 29 hvcurveto
          -36 18 -24 18 26 vvcurveto
          34 30 28 42 32 26 -16 -18 18 vhcurveto
          18 20 rlineto
          22 -24 -30 16 -38 hhcurveto
          -54 -46 -36 -54 -36 28 -24 50 -24 hvcurveto
          48 -24 14 -22 -22 vvcurveto
          -38 -36 -28 -44 -42 -32 24 24 -22 vhcurveto
          endchar
        </CharString>
        <CharString name="sacute">
          95 callsubr
          184 28 vstem
          -95 callsubr
          182 478 -60 callgsubr
        </CharString>
        <CharString name="scaron">
          -131 -19 callsubr
          80 34 hstem
          80 28 184 28 vstem
          -95 callsubr
          366 612 -84 callsubr
        </CharString>
        <CharString name="scircumflex">
          -131 -19 callsubr
          180 34 hstem
          80 28 184 28 vstem
          -95 callsubr
          130 478 -79 callsubr
        </CharString>
        <CharString name="section">
          -61 -44 26 672 26 hstem
          62 28 68 28 102 28 64 28 vstem
          284 170 rmoveto
          -62 65 -132 15 102 vvcurveto
          62 39 38 62 24 vhcurveto
          62 -62 127 -25 -103 vvcurveto
          -66 -33 -27 -63 -23 vhcurveto
          140 442 rmoveto
          36 -34 -46 32 -56 hhcurveto
          -72 -58 -48 -80 -22 6 -19 11 -16 hvcurveto
          -66 -26 -47 -48 -75 -146 226 16 -130 vvcurveto
          -60 -52 -44 -60 -48 -46 24 40 -36 vhcurveto
          -20 -22 rlineto
          -42 42 50 -26 56 hhcurveto
          80 62 62 74 23 -6 20 -10 16 hvcurveto
          69 28 39 34 79 148 -222 0 118 vvcurveto
          60 50 36 50 46 40 -26 -36 30 vhcurveto
          endchar
        </CharString>
        <CharString name="semicolon">
          -313 -8 72 hstemhm
          62 36 -6 68 hintmask 10100000
          -26 -146 rmoveto
          hintmask 11000000
          17 callsubr
          hintmask 10100000
          168 584 rmoveto
          -22 -20 -24 -22 -16 10 -14 18 64 callgsubr
          18 -8 14 -18 hvcurveto
          endchar
        </CharString>
        <CharString name="seven">
          -59 21 -21 614 26 hstem
          114 378 vstem
          136 hmoveto
          9 callsubr
        </CharString>
        <CharString name="seven.dnom">
          -171 366 24 hstem
          70 252 vstem
          82 hmoveto
          -59 callsubr
          endchar
        </CharString>
        <CharString name="seven.numr">
          -171 636 24 hstem
          120 252 vstem
          132 270 rmoveto
          -59 callsubr
          endchar
        </CharString>
        <CharString name="seven.onum">
          -79 544 26 hstem
          82 368 vstem
          98 -70 rmoveto
          32 hlineto
          50 244 66 182 200 75 callgsubr
          -182 -182 -72 -178 -56 -254 rrcurveto
          endchar
        </CharString>
        <CharString name="seven.pnum">
          -79 21 -21 614 26 hstem
          104 368 vstem
          120 hmoveto
          32 hlineto
          50 244 68 182 198 75 callgsubr
          -180 -182 -74 -178 -56 -254 rrcurveto
          endchar
        </CharString>
        <CharString name="seven.subs">
          -171 196 24 hstem
          40 252 vstem
          52 -170 rmoveto
          -59 callsubr
          endchar
        </CharString>
        <CharString name="seven.sups">
          -171 806 24 hstem
          160 252 vstem
          172 440 rmoveto
          -59 callsubr
          endchar
        </CharString>
        <CharString name="seven.tnum">
          -59 544 26 hstem
          100 378 vstem
          122 -70 rmoveto
          9 callsubr
        </CharString>
        <CharString name="seveneighths">
          229 -12 101 callsubr
          234 24 hstemhm
          414 9 callgsubr
          hintmask 11110100
          112 270 rmoveto
          -59 callsubr
          8 -282 -53 callsubr
          352 108 -63 callgsubr
          hintmask 11111010
          -69 callgsubr
          hintmask 11110100
          -59 callgsubr
          hintmask 11111010
          -64 callsubr
          hintmask 11110100
          -50 -22 -50 -44 -58 vvcurveto
          endchar
        </CharString>
        <CharString name="six">
          -86 callgsubr
        </CharString>
        <CharString name="six.dnom">
          -169 -12 24 202 87 callgsubr
          hstem
          30 62 callsubr
          168 214 -76 callsubr
        </CharString>
        <CharString name="six.numr">
          -169 258 24 202 87 callgsubr
          hstem
          80 62 callsubr
          218 484 -76 callsubr
        </CharString>
        <CharString name="six.onum">
          -86 callgsubr
        </CharString>
        <CharString name="six.pnum">
          -86 callgsubr
        </CharString>
        <CharString name="six.subs">
          -169 -182 24 202 87 callgsubr
          hstem
          0 62 callsubr
          138 44 -76 callsubr
        </CharString>
        <CharString name="six.sups">
          -169 428 24 202 87 callgsubr
          hstem
          120 62 callsubr
          258 654 -76 callsubr
        </CharString>
        <CharString name="six.tnum">
          -86 callgsubr
        </CharString>
        <CharString name="slash">
          -165 -160 870 hstem
          -74 512 vstem
          -74 -160 -32 callgsubr
          484 870 -10 callsubr
          endchar
        </CharString>
        <CharString name="slash.frac">
          -439 -12 684 hstem
          -206 522 vstem
          -176 -12 -53 callsubr
          endchar
        </CharString>
        <CharString name="space">
          -327 endchar
        </CharString>
        <CharString name="space.frac">
          -387 endchar
        </CharString>
        <CharString name="sterling">
          -59 0 76 callgsubr
          304 26 hstemhm
          150 28 -18 28 hintmask 11101000
          70 318 rmoveto
          -6 -22 rlineto
          95 hlineto
          1 -10 0 -9 -9 vvcurveto
          -102 -46 -96 -102 -54 vhcurveto
          -4 -16 rlineto
          346 hlineto
          4 26 rlineto
          -278 4 hlineto
          72 62 36 76 106 7 0 8 7 vvcurveto
          156 -86 callsubr
          hintmask 11110000
          -164 hlineto
          -3 44 -5 45 37 29 callgsubr
          -36 5 -44 3 -40 hvcurveto
          endchar
        </CharString>
        <CharString name="summation">
          -51 -120 26 708 26 hstem
          -52 40 118 28 vstem
          -50 -94 rmoveto
          -4 -26 rlineto
          442 hlineto
          8 26 rlineto
          -408 4 hlineto
          320 352 -174 348 rlineto
          4 370 vlineto
          6 26 rlineto
          -402 hlineto
          -4 -26 174 -346 rlineto
          endchar
        </CharString>
        <CharString name="t">
          89 callsubr
          hstem
          74 28 vstem
          -88 callgsubr
          endchar
        </CharString>
        <CharString name="t.sups">
          -315 262 24 276 24 hstem
          84 26 vstem
          88 362 rmoveto
          -2 -12 -2 -10 -10 vvcurveto
          -36 14 -32 52 12 22 6 6 14 vhcurveto
          -6 22 rlineto
          -4 -10 -10 -6 -20 hhcurveto
          -28 -14 18 30 6 2 12 2 10 hvcurveto
          40 200 rlineto
          92 hlineto
          4 24 rlineto
          -92 hlineto
          18 92 rlineto
          -22 hlineto
          -22 -92 -50 -2 -4 -22 rlineto
          50 hlineto
          endchar
        </CharString>
        <CharString name="tcaron">
          89 callsubr
          hstem
          74 28 vstem
          -88 callgsubr
          176 96 -13 callsubr
        </CharString>
        <CharString name="thorn">
          5 -201 -21 210 33 callsubr
          232 -20 hstem
          448 28 vstem
          216 -12 rmoveto
          132 128 146 184 111 -56 61 -84 -68 -62 -40 -42 -52 hvcurveto
          -2 hlineto
          20 98 44 216 -10 callsubr
          -188 -944 rlineto
          28 hlineto
          34 180 22 110 rlineto
          2 hlineto
          -46 29 43 -34 58 hhcurveto
          118 476 rmoveto
          70 44 -51 -101 35 callsubr
          24 64 -38 hvcurveto
          31 callgsubr
          84 callgsubr
          endchar
        </CharString>
        <CharString name="three">
          -59 -12 78 callsubr
          368 28 10 28 hintmask 11110000
          -4 94 -79 callgsubr
        </CharString>
        <CharString name="three.dnom">
          -171 -12 55 callsubr
          230 28 -4 28 hintmask 11110000
          2 68 -77 callsubr
        </CharString>
        <CharString name="three.numr">
          -171 258 24 178 98 callsubr
          hintmask 11110000
          52 338 -77 callsubr
        </CharString>
        <CharString name="three.onum">
          -59 -82 78 callsubr
          354 28 10 28 hintmask 11110000
          -18 24 -79 callgsubr
        </CharString>
        <CharString name="three.pnum">
          -77 -12 78 callsubr
          358 28 10 28 hintmask 11110000
          -14 94 -79 callgsubr
        </CharString>
        <CharString name="three.subs">
          -171 -182 55 callsubr
          200 28 -4 28 hintmask 11110000
          -28 -102 -77 callsubr
        </CharString>
        <CharString name="three.sups">
          -171 428 55 callsubr
          320 28 -4 28 hintmask 11110000
          92 508 -77 callsubr
        </CharString>
        <CharString name="three.tnum">
          -59 -82 78 callsubr
          354 28 10 28 hintmask 11110000
          -18 24 -79 callgsubr
        </CharString>
        <CharString name="threeeighths">
          249 -12 24 246 24 96 24 58 98 callsubr
          102 9 callgsubr
          hintmask 1111110101000000
          52 338 rmoveto
          -42 callsubr
          hintmask 1111101101000000
          60 16 40 46 48 vvcurveto
          60 -42 34 -60 -40 -38 -14 -28 -34 vhcurveto
          14 -21 rlineto
          25 30 35 14 31 hhcurveto
          48 28 -28 -42 -44 -40 -50 -102 hvcurveto
          -6 -24 rlineto
          hintmask 1111110101000000
          -30 callsubr
          96 -364 -53 callsubr
          322 108 -63 callgsubr
          hintmask 1111110110100000
          -69 callgsubr
          hintmask 1111110101000000
          -59 callgsubr
          hintmask 1111110110100000
          -64 callsubr
          hintmask 1111110101000000
          -50 -22 -50 -44 -58 vvcurveto
          endchar
        </CharString>
        <CharString name="threequarters">
          229 0 144 -135 -21 132 24 114 24 58 50 70 98 callsubr
          hintmask 0111011100000000
          132 609 rmoveto
          hintmask 0111011010000000
          25 30 35 14 31 hhcurveto
          48 28 -28 -42 -44 -40 -50 -102 hvcurveto
          -6 -24 rlineto
          hintmask 0111011100000000
          -30 callsubr
          -22 -14 rlineto
          -42 callsubr
          hintmask 0111111010000000
          60 16 40 46 48 vvcurveto
          60 -42 34 -60 -40 -38 -14 -28 -34 vhcurveto
          536 42 rmoveto
          -492 -684 rlineto
          30 hlineto
          492 684 rlineto
          -224 -528 rmoveto
          102 114 72 82 -24 callsubr
          -24 -98 -19 -98 rlineto
          75 246 rmoveto
          -18 hlineto
          -228 -252 -4 -18 rlineto
          170 hlineto
          hintmask 1001011100000000
          -24 -120 rlineto
          26 hlineto
          hintmask 0111011100000000
          24 120 rlineto
          56 hlineto
          6 24 rlineto
          -57 hlineto
          endchar
        </CharString>
        <CharString name="tilde">
          -11 580 24 36 24 hstem
          212 248 vstem
          234 582 -92 callgsubr
        </CharString>
        <CharString name="trademark">
          63 418 38 194 26 hstem
          80 552 vstem
          316 370 -32 callgsubr
          34 170 -2 callgsubr
          -246 -306 -32 callgsubr
          56 280 rlineto
          106 -86 callsubr
          -242 hlineto
          -6 -26 rlineto
          108 hlineto
          endchar
        </CharString>
        <CharString name="triagdn">
          15 38 472 hstem
          24 482 vstem
          266 38 rmoveto
          240 470 rlineto
          2 -482 -2 vlineto
          240 -470 rlineto
          endchar
        </CharString>
        <CharString name="triagup">
          15 52 472 hstem
          24 482 vstem
          264 524 rmoveto
          -240 -470 rlineto
          -2 482 2 vlineto
          -240 470 rlineto
          endchar
        </CharString>
        <CharString name="two">
          -59 0 26 600 26 hstem
          402 28 vstem
          -8 hmoveto
          370 hlineto
          4 26 rlineto
          -324 hlineto
          270 232 118 98 150 vvcurveto
          82 -52 64 -100 6 callsubr
          86 40 -58 -68 -134 -114 -92 -294 -254 hvcurveto
          endchar
        </CharString>
        <CharString name="two.dnom">
          -171 0 24 354 24 hstem
          260 28 vstem
          6 hmoveto
          -78 callsubr
          endchar
        </CharString>
        <CharString name="two.numr">
          -171 270 24 354 24 hstem
          310 28 vstem
          56 270 rmoveto
          -78 callsubr
          endchar
        </CharString>
        <CharString name="two.onum">
          -67 0 26 530 26 hstem
          374 28 vstem
          -8 hmoveto
          360 hlineto
          4 26 rlineto
          -312 hlineto
          243 196 115 85 129 vvcurveto
          82 -50 64 -92 6 callsubr
          78 38 -58 -68 -114 -107 -77 -273 -219 hvcurveto
          endchar
        </CharString>
        <CharString name="two.pnum">
          -67 0 26 600 26 hstem
          392 28 vstem
          -8 hmoveto
          360 hlineto
          4 26 rlineto
          -314 hlineto
          262 232 116 98 150 vvcurveto
          82 -50 64 -92 6 callsubr
          78 38 -58 -68 -134 -110 -92 -288 -254 hvcurveto
          endchar
        </CharString>
        <CharString name="two.subs">
          -171 -170 24 354 24 hstem
          230 28 vstem
          -24 -170 rmoveto
          -78 callsubr
          endchar
        </CharString>
        <CharString name="two.sups">
          -171 440 24 354 24 hstem
          350 28 vstem
          96 440 rmoveto
          -78 callsubr
          endchar
        </CharString>
        <CharString name="two.tnum">
          -59 0 26 530 26 hstem
          384 28 vstem
          -8 hmoveto
          370 hlineto
          4 26 rlineto
          -322 hlineto
          250 196 118 85 129 vvcurveto
          82 -52 64 -100 6 callsubr
          86 40 -58 -68 -114 -110 -77 -280 -219 hvcurveto
          endchar
        </CharString>
        <CharString name="twothirds">
          257 -12 24 178 24 56 24 84 24 246 24 hstemhm
          310 28 318 28 -4 28 hintmask 11111110
          56 270 rmoveto
          -78 callsubr
          110 -306 -53 callsubr
          288 80 rmoveto
          -42 callsubr
          hintmask 11111101
          60 16 40 46 48 vvcurveto
          60 -42 34 -60 -40 -38 -14 -28 -34 vhcurveto
          14 -21 rlineto
          25 30 35 14 31 hhcurveto
          48 28 -28 -42 -44 -40 -50 -102 hvcurveto
          -6 -24 rlineto
          hintmask 11111110
          -11 callgsubr
        </CharString>
        <CharString name="u">
          -1 -45 callsubr
          hstemhm
          70 28 hintmask 10110000
          468 478 rmoveto
          -28 -105 callgsubr
          hintmask 01110000
          -16 callgsubr
          endchar
        </CharString>
        <CharString name="u.sups">
          -169 262 24 hstem
          82 26 vstem
          352 586 rmoveto
          -26 hlineto
          -46 -230 rlineto
          -48 -48 -38 -22 -36 hhcurveto
          -33 -17 20 40 12 2 10 4 18 hvcurveto
          40 200 rlineto
          -26 81 callsubr
          -4 -18 -2 -8 -16 vvcurveto
          -48 18 -30 56 40 36 24 32 38 vhcurveto
          4 hlineto
          -6 -48 rlineto
          22 hlineto
          endchar
        </CharString>
        <CharString name="uacute">
          -1 -45 callsubr
          hstemhm
          70 28 hintmask 10110000
          468 478 rmoveto
          -28 -105 callgsubr
          hintmask 01110000
          -16 callgsubr
          -108 570 -60 callgsubr
        </CharString>
        <CharString name="ubreve">
          -1 -45 callsubr
          118 24 hstemhm
          70 28 134 22 hintmask 10111100
          468 478 rmoveto
          -28 -105 callgsubr
          hintmask 01111100
          -16 callgsubr
          -54 576 -100 callsubr
          endchar
        </CharString>
        <CharString name="ucircumflex">
          -1 -45 callsubr
          212 34 hstemhm
          70 28 hintmask 10111000
          468 478 rmoveto
          -28 -105 callgsubr
          hintmask 01111000
          -16 callgsubr
          -160 570 -79 callsubr
        </CharString>
        <CharString name="udieresis">
          -1 -45 callsubr
          144 64 hstemhm
          70 28 130 58 88 58 hintmask 10111000
          468 478 rmoveto
          -28 -105 callgsubr
          hintmask 01111110
          -16 callgsubr
          -118 602 rmoveto
          -102 callgsubr
        </CharString>
        <CharString name="ugrave">
          -1 -45 callsubr
          hstemhm
          70 28 hintmask 10110000
          468 478 rmoveto
          -28 -105 callgsubr
          hintmask 01110000
          -16 callgsubr
          -32 570 -28 callsubr
        </CharString>
        <CharString name="uhorn">
          9 -45 callsubr
          hstemhm
          70 28 440 30 hintmask 10111000
          534 584 -8 callgsubr
          -50 -24 -46 -6 vhcurveto
          -2 -105 callgsubr
          hintmask 01111000
          -13 callgsubr
        </CharString>
        <CharString name="uhungarumlaut">
          -1 -45 callsubr
          112 136 hstemhm
          70 28 hintmask 10111000
          468 478 rmoveto
          -28 -105 callgsubr
          hintmask 01111000
          -16 callgsubr
          -136 570 -18 callsubr
        </CharString>
        <CharString name="umacron">
          -1 -45 callsubr
          150 26 hstemhm
          70 28 hintmask 10111000
          468 478 rmoveto
          -28 -105 callgsubr
          hintmask 01111000
          -16 callgsubr
          -154 608 -83 callgsubr
        </CharString>
        <CharString name="underscore">
          -31 -112 28 hstem
          -26 464 vstem
          -20 -84 rmoveto
          -6 -28 rlineto
          458 hlineto
          6 28 rlineto
          endchar
        </CharString>
        <CharString name="uni00470303">
          7 callsubr
          44 24 38 24 hstem
          58 30 -98 callgsubr
          239 472 -85 callgsubr
        </CharString>
        <CharString name="uni00670303">
          -27 callsubr
          122 24 36 24 hstemhm
          46 28 hintmask 11011110
          448 478 rmoveto
          hintmask 11101110
          -97 callgsubr
          hintmask 11011110
          -38 callgsubr
          hintmask 11101110
          -56 callsubr
          hintmask 11011110
          27 callsubr
          hintmask 11101110
          42 560 -92 callgsubr
        </CharString>
        <CharString name="uni00670303.a">
          -20 callsubr
          90 24 36 24 98 callgsubr
          hintmask 1101111110000000
          -95 callgsubr
          hintmask 1110111101000000
          -60 callsubr
          hintmask 1101111101000000
          36 callsubr
          hintmask 1101111110000000
          -82 callgsubr
          hintmask 1101111101000000
          -63 callsubr
          -86 118 -92 callgsubr
        </CharString>
        <CharString name="uni00A0">
          -327 endchar
        </CharString>
        <CharString name="uni00AD">
          32 callsubr
        </CharString>
        <CharString name="uni00B5">
          -5 -12 26 hstem
          76 18 vstem
          164 478 rmoveto
          -28 hlineto
          -136 -678 rlineto
          28 hlineto
          30 158 18 100 rlineto
          -51 16 40 -19 48 hhcurveto
          58 54 40 52 60 hvcurveto
          4 hlineto
          -16 callgsubr
          96 92 callsubr
          -72 -358 rlineto
          -74 -76 -60 -32 -44 hhcurveto
          -64 -26 32 62 20 2 14 6 30 hvcurveto
          endchar
        </CharString>
        <CharString name="uni0122">
          82 callgsubr
          200 26 -98 callgsubr
          188 -318 -91 callgsubr
          endchar
        </CharString>
        <CharString name="uni0123">
          -27 callsubr
          hstemhm
          46 28 206 26 hintmask 11011100
          448 478 rmoveto
          hintmask 11101100
          -97 callgsubr
          hintmask 11011100
          -38 callgsubr
          hintmask 11101100
          -56 callsubr
          hintmask 11011100
          54 callgsubr
          162 542 -8 callsubr
        </CharString>
        <CharString name="uni0123.a">
          -20 callsubr
          62 callgsubr
          114 26 88 28 0 28 hintmask 1101111100000000
          -95 callgsubr
          hintmask 1110111010000000
          -60 callsubr
          hintmask 1101111010000000
          36 callsubr
          hintmask 1101111100000000
          -82 callgsubr
          hintmask 1101111010000000
          -63 callsubr
          22 100 -8 callsubr
        </CharString>
        <CharString name="uni012C">
          -297 -16 callsubr
          70 26 hstem
          104 22 vstem
          40 hmoveto
          -33 callsubr
          18 50 -65 callsubr
        </CharString>
        <CharString name="uni012D">
          1 callgsubr
          118 24 hstem
          90 22 -42 callgsubr
          36 98 -100 callsubr
          endchar
        </CharString>
        <CharString name="uni0136">
          7 84 callsubr
          264 26 -28 callgsubr
          50 -732 -91 callgsubr
          endchar
        </CharString>
        <CharString name="uni0137">
          -79 28 callgsubr
          264 -20 hstem
          206 26 -46 callgsubr
          108 546 -10 callsubr
          -24 -794 -91 callgsubr
          endchar
        </CharString>
        <CharString name="uni013B">
          90 callgsubr
          220 26 vstem
          -49 callgsubr
          6 -732 -91 callgsubr
          endchar
        </CharString>
        <CharString name="uni013C">
          82 callsubr
          -18 26 -65 callgsubr
          hintmask 01101000
          -168 -794 -91 callgsubr
          endchar
        </CharString>
        <CharString name="uni013C.a">
          39 callsubr
          hstem
          60 26 -11 callsubr
          -170 -794 -91 callgsubr
          endchar
        </CharString>
        <CharString name="uni0145">
          91 callsubr
          258 26 -93 callsubr
          44 -740 -91 callgsubr
          endchar
        </CharString>
        <CharString name="uni0146">
          -11 21 -55 callgsubr
          hstemhm
          220 26 168 28 hintmask 11011000
          -97 callsubr
          -52 -60 vhcurveto
          -4 hlineto
          hintmask 10111000
          12 78 -19 callgsubr
          38 -550 -91 callgsubr
          endchar
        </CharString>
        <CharString name="uni014E">
          11 callsubr
          38 26 hstem
          62 30 216 22 224 -104 callsubr
          24 64 -65 callsubr
        </CharString>
        <CharString name="uni014F">
          5 callgsubr
          86 24 hstem
          46 28 168 22 162 28 vstem
          -104 callgsubr
          34 112 -100 callsubr
          endchar
        </CharString>
        <CharString name="uni0156">
          46 callgsubr
          hstem
          242 26 224 30 vstem
          200 -80 -91 callgsubr
          -74 394 -94 callsubr
        </CharString>
        <CharString name="uni0157">
          4 callgsubr
          hstemhm
          66 26 -66 callgsubr
          -116 -550 -91 callgsubr
          endchar
        </CharString>
        <CharString name="uni015E">
          -27 -12 26 -24 24 91 callgsubr
          48 26 174 30 hintmask 10111100
          322 306 rmoveto
          52 -30 34 -40 -60 vvcurveto
          -98 -78 -64 -100 -86 -60 36 64 -42 vhcurveto
          -24 -16 rlineto
          hintmask 01111100
          39 -62 60 -39 78 -7 -45 -64 rcurveline
          40 -10 18 -10 -26 vvcurveto
          -36 -42 -20 -56 -12 vhcurveto
          4 -20 rlineto
          62 10 58 28 56 vvcurveto
          hintmask 10111100
          30 -22 16 -24 8 vhcurveto
          34 48 rlineto
          61 callsubr
          120 92 76 116 72 -42 46 -62 36 hvcurveto
          -86 50 rlineto
          -46 26 -42 36 64 vvcurveto
          66 58 70 90 72 54 -36 -44 34 vhcurveto
          22 18 rlineto
          48 -34 -62 40 -80 hhcurveto
          -110 -74 -78 -88 -70 50 -46 54 -32 hvcurveto
          endchar
        </CharString>
        <CharString name="uni015F">
          95 callsubr
          58 26 100 28 vstem
          76 vmoveto
          25 -41 60 -44 67 -3 -44 -62 rcurveline
          -71 callsubr
          35 49 rlineto
          80 8 59 52 79 vvcurveto
          40 -12 36 -110 60 vhcurveto
          -48 26 -42 26 48 vvcurveto
          54 52 46 64 50 34 -22 -28 26 vhcurveto
          20 20 rlineto
          34 -32 -44 22 -52 hhcurveto
          -78 -68 -52 -80 -48 30 -32 90 -48 hvcurveto
          77 -41 15 -27 -40 vvcurveto
          -58 -60 -50 -70 -64 -50 36 42 -26 vhcurveto
          endchar
        </CharString>
        <CharString name="uni0162">
          69 callsubr
          hstem
          176 26 vstem
          106 660 rmoveto
          -6 -28 rlineto
          206 hlineto
          -126 -630 rlineto
          -8 hlineto
          -54 -76 rlineto
          -71 callsubr
          43 60 rlineto
          11 hlineto
          126 632 rlineto
          206 hlineto
          6 28 rlineto
          endchar
        </CharString>
        <CharString name="uni0163">
          -225 -10 24 438 26 hstem
          74 28 56 26 vstem
          174 452 rmoveto
          132 -86 callsubr
          -132 hlineto
          28 138 -19 callgsubr
          -32 -138 -78 -4 -4 -22 rlineto
          76 hlineto
          -68 -328 rlineto
          -2 -16 -2 -12 -18 vvcurveto
          -42 18 -37 53 -9 vhcurveto
          -45 -64 rlineto
          -71 callsubr
          34 48 27 1 25 11 18 10 rlinecurve
          100 callsubr
          -16 -20 -10 -24 hhcurveto
          -54 -16 24 46 14 2 12 2 12 hvcurveto
          endchar
        </CharString>
        <CharString name="uni0180">
          -17 -12 26 7 88 callsubr
          444 28 hintmask 10110100
          142 352 rmoveto
          84 callgsubr
          70 44 -48 -94 -143 -106 -145 -120 -48 -40 26 66 -38 hvcurveto
          56 282 rmoveto
          20 98 20 98 rlineto
          186 -86 callsubr
          -187 hlineto
          hintmask 10101100
          23 112 -10 callsubr
          hintmask 01110100
          -22 -112 -74 -4 -4 -22 rlineto
          72 hlineto
          -116 -584 -58 callgsubr
          hintmask 10110100
          18 68 -24 callsubr
          -48 26 42 -32 58 hhcurveto
          132 124 142 178 105 -56 57 -84 -68 -62 -40 -42 -52 hvcurveto
          endchar
        </CharString>
        <CharString name="uni018F">
          95 -12 26 282 26 324 26 hstem
          62 27 465 30 vstem
          545 296 rmoveto
          -165 -32 -113 -117 -138 hhcurveto
          -124 -68 106 176 24 hvcurveto
          118 278 rmoveto
          42 44 60 30 62 hhcurveto
          130 46 -102 -152 -24 -2 -23 -3 -23 hvcurveto
          -477 hlineto
          -6 -32 -4 -26 -38 vvcurveto
          -136 70 -102 128 178 146 174 236 162 -62 112 -142 -70 -70 -34 -44 -46 vhcurveto
          endchar
        </CharString>
        <CharString name="uni0192">
          -59 -98 26 448 26 244 26 -22 -20 hstemhm
          -58 558 hintmask 11011000
          241 402 rmoveto
          -33 hlineto
          -64 -2 -6 -24 rlineto
          95 hlineto
          -89 -288 rlineto
          -86 -26 -44 -74 -62 hhcurveto
          -20 -18 6 12 -18 hvcurveto
          -14 -24 rlineto
          -14 22 20 -6 26 hhcurveto
          80 50 74 108 33 hvcurveto
          90 292 rlineto
          137 -86 callsubr
          -135 hlineto
          24 78 rlineto
          hintmask 11101000
          81 25 42 85 62 hhcurveto
          24 20 -8 -12 20 hvcurveto
          hintmask 11011000
          12 24 rlineto
          hintmask 11101000
          12 -20 -26 10 -28 hhcurveto
          -76 -53 -86 -102 -31 hvcurveto
          endchar
        </CharString>
        <CharString name="uni01CD">
          -62 callgsubr
          50 26 hstem
          -46 504 vstem
          346 710 rmoveto
          63 callsubr
          72 -102 rlineto
          50 -446 -102 callsubr
          endchar
        </CharString>
        <CharString name="uni01CE">
          -71 callgsubr
          112 34 hstemhm
          46 28 hintmask 10100100
          -88 callsubr
          hintmask 01010100
          -74 callgsubr
          hintmask 10100100
          -107 callsubr
          hintmask 10101100
          266 690 -84 callsubr
        </CharString>
        <CharString name="uni01CE.a">
          -72 callsubr
          80 34 46 callsubr
          hintmask 10110110
          -84 callgsubr
          hintmask 01110110
          -103 callsubr
          hintmask 10110110
          8 callsubr
          58 436 -84 callsubr
        </CharString>
        <CharString name="uni01CF">
          -297 -16 callsubr
          70 26 hstem
          40 276 vstem
          40 hmoveto
          -33 callsubr
          144 152 -68 callgsubr
        </CharString>
        <CharString name="uni01CF.a">
          14 callsubr
          50 26 hstem
          -8 358 -89 callgsubr
          352 786 -68 callgsubr
        </CharString>
        <CharString name="uni01D0">
          1 callgsubr
          112 34 hstem
          44 262 -42 callgsubr
          166 226 -84 callsubr
        </CharString>
        <CharString name="uni01D1">
          11 callsubr
          38 26 -100 callgsubr
          150 166 -68 callgsubr
        </CharString>
        <CharString name="uni01D2">
          5 callgsubr
          80 34 hstem
          46 28 352 28 vstem
          -104 callgsubr
          164 240 -84 callsubr
        </CharString>
        <CharString name="uni01D3">
          -14 callgsubr
          70 26 hstem
          82 30 -103 callgsubr
          338 152 -68 callgsubr
        </CharString>
        <CharString name="uni01D4">
          -1 -45 callsubr
          112 34 hstemhm
          70 28 hintmask 10111000
          468 478 rmoveto
          -28 -105 callgsubr
          hintmask 01111000
          -16 callgsubr
          76 704 -84 callsubr
        </CharString>
        <CharString name="uni01D5">
          -14 callgsubr
          86 66 60 26 hstem
          82 30 182 60 86 62 -103 callgsubr
          150 66 -6 callgsubr
        </CharString>
        <CharString name="uni01D6">
          -1 -45 callsubr
          144 64 78 26 hstemhm
          70 28 130 58 88 58 hintmask 10111100
          468 478 rmoveto
          -28 -105 callgsubr
          hintmask 01111111
          -16 callgsubr
          -124 744 -49 callsubr
          -168 vmoveto
          -102 callgsubr
        </CharString>
        <CharString name="uni01D7">
          -14 callgsubr
          86 66 hstem
          82 30 176 62 86 62 -103 callgsubr
          206 166 67 callgsubr
          -172 -202 -72 callgsubr
          endchar
        </CharString>
        <CharString name="uni01D8">
          -1 -45 callsubr
          144 64 hstemhm
          70 28 130 58 88 58 hintmask 10111000
          468 478 rmoveto
          -28 -105 callgsubr
          hintmask 01111110
          -16 callgsubr
          -60 97 callsubr
          -144 -198 rmoveto
          -102 callgsubr
        </CharString>
        <CharString name="uni01D9">
          -14 callgsubr
          86 66 34 26 hstem
          82 30 176 62 86 62 -103 callgsubr
          144 66 -72 callgsubr
          -68 100 rmoveto
          24 hlineto
          63 callsubr
          endchar
        </CharString>
        <CharString name="uni01DA">
          -1 -45 callsubr
          144 64 40 28 hstemhm
          70 28 130 58 88 58 hintmask 10111100
          468 478 rmoveto
          -28 -105 callgsubr
          hintmask 01111111
          -16 callgsubr
          -32 706 rmoveto
          18 hlineto
          106 94 -10 callsubr
          -82 -66 rlineto
          -4 hlineto
          -64 66 -19 callgsubr
          -8 -198 rmoveto
          -102 callgsubr
        </CharString>
        <CharString name="uni01DB">
          -14 callgsubr
          86 66 hstem
          82 30 176 62 86 62 -103 callgsubr
          244 166 rmoveto
          26 hlineto
          -80 102 rlineto
          -32 hlineto
          -14 -202 -72 callgsubr
          endchar
        </CharString>
        <CharString name="uni01DC">
          -1 -45 callsubr
          144 64 hstemhm
          70 28 130 58 88 58 hintmask 10111000
          468 478 rmoveto
          -28 -105 callgsubr
          hintmask 01111110
          -16 callgsubr
          -22 706 rmoveto
          24 hlineto
          -60 94 rlineto
          -34 hlineto
          -26 -198 rmoveto
          -102 callgsubr
        </CharString>
        <CharString name="uni01EA">
          97 70 callsubr
          632 26 hstem
          62 30 90 30 342 30 vstem
          370 646 rmoveto
          130 54 -104 -148 -156 -98 -224 -180 -130 -54 104 148 -57 callsubr
          hvcurveto
          214 -248 rmoveto
          160 -68 114 -144 -198 -112 -234 -176 -160 68 -108 134 -6 vhcurveto
          -34 -20 -48 -56 -52 -36 callsubr
          40 56 90 30 hvcurveto
          154 48 88 190 162 vvcurveto
          endchar
        </CharString>
        <CharString name="uni01EB">
          -15 70 callsubr
          450 26 hstem
          46 28 44 30 278 28 vstem
          118 -140 rmoveto
          -85 callsubr
          40 41 57 71 31 hvcurveto
          118 52 76 108 148 vvcurveto
          120 -62 68 -96 -130 -120 -136 -178 -120 58 -64 98 -4 vhcurveto
          -38 -20 -46 -56 -52 vvcurveto
          176 604 rmoveto
          84 48 -58 -110 -152 -112 -130 -108 -84 -48 58 110 152 112 130 108 hvcurveto
          endchar
        </CharString>
        <CharString name="uni0218">
          -27 47 callgsubr
          hstem
          130 30 52 26 170 30 vstem
          -96 callgsubr
          128 -194 -91 callgsubr
          endchar
        </CharString>
        <CharString name="uni0219">
          95 callsubr
          60 26 98 28 vstem
          -95 callsubr
          104 -164 -91 callgsubr
          endchar
        </CharString>
        <CharString name="uni021A">
          69 callsubr
          hstem
          202 26 vstem
          -35 callgsubr
          -146 -704 -91 callgsubr
          endchar
        </CharString>
        <CharString name="uni021B">
          89 callsubr
          hstem
          74 28 48 26 vstem
          -88 callgsubr
          -38 -524 -91 callgsubr
          endchar
        </CharString>
        <CharString name="uni0237">
          79 callsubr
          hstem
          -118 286 -25 callsubr
          endchar
        </CharString>
        <CharString name="uni0243">
          75 0 26 154 26 132 76 callgsubr
          hstemhm
          482 30 -6 30 hintmask 11111000
          92 26 rmoveto
          32 154 rlineto
          168 -86 callsubr
          -169 hlineto
          27 132 rlineto
          140 hlineto
          45 callsubr
          -16 608 rmoveto
          116 hlineto
          hintmask 11110100
          122 54 -44 -74 -88 -76 -64 -152 hvcurveto
          -118 hlineto
          hintmask 11111000
          226 -12 rmoveto
          hintmask 11110100
          62 10 88 56 100 vvcurveto
          88 -68 54 -122 vhcurveto
          -156 hlineto
          -91 -454 -71 -2 -6 -24 rlineto
          72 hlineto
          -36 -180 rlineto
          190 hlineto
          hintmask 11111000
          45 callgsubr
          endchar
        </CharString>
        <CharString name="uni0251">
          -71 callgsubr
          hstemhm
          46 28 hintmask 10101000
          -88 callsubr
          hintmask 01011000
          -74 callgsubr
          hintmask 10101000
          -107 callsubr
          endchar
        </CharString>
        <CharString name="uni0259">
          -49 -12 26 208 26 216 26 hstem
          32 28 332 28 vstem
          420 294 rmoveto
          126 -62 70 -96 -60 -44 -22 -20 -38 vhcurveto
          12 -24 rlineto
          20 38 40 20 50 hhcurveto
          96 52 -88 -128 -20 hvcurveto
          -342 hlineto
          -8 -28 -6 -30 -34 vvcurveto
          -98 40 -70 102 120 126 124 182 vhcurveto
          -38 -72 rmoveto
          -128 -28 -88 -80 -90 hhcurveto
          -90 -26 68 68 22 2 28 6 22 hvcurveto
          endchar
        </CharString>
        <CharString name="uni0259.sups">
          -203 262 24 128 24 132 24 hstem
          56 26 212 28 vstem
          322 464 rmoveto
          84 -44 46 -68 -38 -34 -14 -14 -24 vhcurveto
          10 -22 rlineto
          14 24 26 12 34 hhcurveto
          60 36 -44 -88 -10 hvcurveto
          -228 hlineto
          -6 -18 -4 -29 -17 vvcurveto
          -58 28 -54 74 76 88 82 120 vhcurveto
          -34 -50 rmoveto
          -76 -16 -60 -52 -52 hhcurveto
          -58 -20 40 44 14 2 18 2 12 hvcurveto
          endchar
        </CharString>
        <CharString name="uni0261">
          -27 callsubr
          hstemhm
          46 28 hintmask 11011000
          448 478 rmoveto
          hintmask 11101000
          -97 callgsubr
          hintmask 11011000
          -38 callgsubr
          hintmask 11101000
          -56 callsubr
          hintmask 11011000
          27 callsubr
          endchar
        </CharString>
        <CharString name="uni02B9">
          -313 498 196 hstem
          126 90 22 callgsubr
          endchar
        </CharString>
        <CharString name="uni02BB">
          -313 498 66 hstem
          120 32 vstem
          220 702 -34 callgsubr
          endchar
        </CharString>
        <CharString name="uni02BC">
          -313 636 66 hstem
          194 32 vstem
          126 498 -75 callgsubr
          endchar
        </CharString>
        <CharString name="uni02BE">
          -365 538 20 126 20 hstem
          186 26 vstem
          102 538 rmoveto
          68 42 42 56 38 -26 32 -50 -2 hvcurveto
          -6 -20 rlineto
          42 14 -24 -30 -40 -28 -30 -52 -2 hvcurveto
          endchar
        </CharString>
        <CharString name="uni02BF">
          -347 540 20 126 20 hstem
          106 26 vstem
          216 706 rmoveto
          -68 -42 -42 -56 -38 26 -32 50 2 hvcurveto
          6 20 rlineto
          -42 -14 24 30 40 28 30 52 2 hvcurveto
          endchar
        </CharString>
        <CharString name="uni02C8">
          -431 588 168 hstem
          98 58 vstem
          98 588 rmoveto
          20 hlineto
          38 168 -24 callgsubr
          endchar
        </CharString>
        <CharString name="uni02C9">
          -277 608 26 hstem
          86 216 vstem
          86 608 -83 callgsubr
        </CharString>
        <CharString name="uni02CA">
          -311 80 callsubr
          114 154 vstem
          114 570 -60 callgsubr
        </CharString>
        <CharString name="uni02CB">
          -311 80 callsubr
          120 94 vstem
          190 570 -28 callsubr
        </CharString>
        <CharString name="uni02CC">
          -431 -244 168 hstem
          -66 58 vstem
          -8 -76 rmoveto
          -20 hlineto
          -38 -168 rlineto
          30 hlineto
          endchar
        </CharString>
        <CharString name="uni0300">
          80 callsubr
          66 94 vstem
          136 570 -28 callsubr
        </CharString>
        <CharString name="uni0300.cap">
          710 102 hstem
          44 112 vstem
          130 710 2 callgsubr
        </CharString>
        <CharString name="uni0301">
          80 callsubr
          60 154 vstem
          60 570 -60 callgsubr
        </CharString>
        <CharString name="uni0301.cap">
          710 102 hstem
          94 148 vstem
          94 710 -39 callgsubr
        </CharString>
        <CharString name="uni0302">
          670 34 hstem
          8 208 vstem
          8 570 -79 callsubr
        </CharString>
        <CharString name="uni0302.cap">
          786 26 hstem
          20 208 vstem
          20 710 -80 callgsubr
          endchar
        </CharString>
        <CharString name="uni03020300">
          634 110 -96 34 hstemhm
          -24 258 hintmask 10100000
          182 744 26 callgsubr
          hintmask 01100000
          -258 -64 -80 callsubr
          endchar
        </CharString>
        <CharString name="uni03020300.cap">
          768 104 -92 26 hstemhm
          -48 250 hintmask 10100000
          148 872 56 callsubr
          hintmask 01100000
          -250 -58 -74 callsubr
          endchar
        </CharString>
        <CharString name="uni03020301">
          648 34 hstem
          -24 314 vstem
          -24 570 -80 callsubr
          78 -48 -32 callgsubr
          102 110 rlineto
          -36 hlineto
          endchar
        </CharString>
        <CharString name="uni03020301.cap">
          768 104 -92 26 hstemhm
          -48 302 hintmask 01100000
          136 768 rmoveto
          26 hlineto
          hintmask 10100000
          92 104 rlineto
          -32 hlineto
          hintmask 01100000
          -270 -162 -74 callsubr
          endchar
        </CharString>
        <CharString name="uni03020303">
          634 85 callgsubr
          -34 256 hintmask 10110000
          100 664 -30 callgsubr
          13 callsubr
          hintmask 11110000
          -51 callgsubr
          hintmask 10110000
          -21 callsubr
        </CharString>
        <CharString name="uni03020303.cap">
          780 26 32 24 34 24 hstem
          -48 257 vstem
          -48 710 -50 callgsubr
        </CharString>
        <CharString name="uni03020306">
          634 30 24 24 hstemhm
          6 22 vstemhm
          100 664 -30 callgsubr
          hintmask 01100000
          -80 118 rmoveto
          72 34 46 38 18 hvcurveto
          -24 hlineto
          -34 -18 -34 -26 -46 hhcurveto
          -46 -22 24 36 2 hvcurveto
          -22 hlineto
          -38 -2 16 -46 72 hhcurveto
          endchar
        </CharString>
        <CharString name="uni03020306.cap">
          780 26 28 24 hstemhm
          -10 22 vstemhm
          43 callsubr
          hintmask 01100000
          14 28 rmoveto
          70 38 46 38 12 hvcurveto
          -24 hlineto
          -31 -14 -28 -29 -52 hhcurveto
          -50 -14 27 33 2 hvcurveto
          -22 hlineto
          -37 -3 15 -47 70 hhcurveto
          endchar
        </CharString>
        <CharString name="uni03020309">
          648 34 70 22 hstem
          238 26 vstem
          174 752 -75 callsubr
        </CharString>
        <CharString name="uni03020309.cap">
          780 26 68 22 hstem
          220 26 vstem
          43 callsubr
          98 68 -46 callsubr
        </CharString>
        <CharString name="uni0303">
          580 24 36 24 hstem
          -2 248 vstem
          20 582 -92 callgsubr
        </CharString>
        <CharString name="uni0303.cap">
          716 24 38 24 hstem
          5 254 vstem
          27 718 -85 callgsubr
        </CharString>
        <CharString name="uni0304">
          608 26 hstem
          14 216 vstem
          14 608 -83 callgsubr
        </CharString>
        <CharString name="uni0304.cap">
          736 26 hstem
          24 216 vstem
          24 736 -49 callsubr
          endchar
        </CharString>
</ttFont>
